<?xml version="1.0" standalone="no"?>
<!DOCTYPE svg PUBLIC "-//W3C//DTD SVG 20010904//EN"
 "http://www.w3.org/TR/2001/REC-SVG-20010904/DTD/svg10.dtd">
<svg version="1.0" xmlns="http://www.w3.org/2000/svg"
 width="461.000000pt" height="461.000000pt" viewBox="0 0 461.000000 461.000000"
 preserveAspectRatio="xMidYMid meet">
<metadata>
Created by potrace 1.11, written by Peter Selinger 2001-2013
</metadata>
<g transform="translate(0.000000,461.000000) scale(0.100000,-0.100000)"
fill="#000000" stroke="none">
<path d="M2836 4580 c-168 -51 -214 -281 -80 -399 150 -132 388 -24 385 175 0
71 -26 127 -77 172 -63 56 -148 76 -228 52z"/>
<path d="M2325 4344 c-147 -19 -175 -24 -285 -51 -277 -67 -521 -189 -683
-342 l-68 -64 -107 1 c-120 0 -165 -9 -187 -41 -23 -33 -22 -348 2 -388 18
-29 54 -43 108 -41 l30 1 -30 -8 c-105 -27 -169 -109 -166 -214 1 -78 50 -150
130 -191 24 -13 27 -19 26 -74 0 -47 -6 -68 -27 -99 -60 -91 -105 -202 -116
-288 -18 -136 -3 -275 44 -397 l18 -47 -41 -58 c-71 -102 -158 -284 -178 -373
-2 -8 -11 -45 -19 -82 -14 -59 -22 -119 -30 -238 -3 -34 -4 -35 -47 -36 -24
-1 -56 -2 -72 -3 l-27 -1 2 -207 3 -208 104 0 105 0 21 -55 c104 -267 319
-513 575 -656 219 -123 526 -184 760 -153 36 5 82 12 104 15 77 11 213 56 313
104 284 135 508 368 632 656 l39 89 43 1 c24 1 49 2 54 3 7 1 10 74 10 204 0
194 -1 202 -20 207 -11 4 -20 15 -21 25 -4 122 -40 319 -70 392 -8 18 -12 33
-9 33 24 0 163 34 173 42 6 6 12 8 12 5 0 -3 26 7 58 23 200 97 339 280 388
510 4 19 8 170 8 335 l1 299 35 7 c59 12 70 37 70 154 0 88 -3 106 -21 129
-11 14 -28 26 -37 26 -15 0 -17 21 -17 228 -1 213 -2 229 -22 268 -33 63 -66
97 -123 128 -189 103 -415 -38 -412 -255 1 -37 0 -38 -21 -25 -43 28 -98 24
-134 -10 -25 -24 -28 -32 -27 -93 1 -78 24 -137 77 -196 32 -36 34 -41 17 -47
-41 -15 -52 -51 -48 -162 4 -119 17 -146 73 -146 l33 0 -2 -283 c-1 -314 -2
-316 -69 -357 -28 -18 -51 -20 -199 -20 -99 0 -168 4 -168 9 0 6 8 16 18 23 9
7 18 20 20 28 2 8 10 21 19 28 9 6 13 12 9 12 -8 0 24 62 39 72 6 4 6 8 2 8
-5 0 1 14 13 30 12 17 19 30 15 30 -3 0 1 12 9 28 9 15 24 53 34 84 10 32 21
55 25 52 3 -3 3 4 0 17 -4 15 -3 20 5 15 8 -4 10 -2 6 7 -3 8 1 38 10 65 8 28
12 53 9 56 -4 3 -2 6 3 6 5 0 8 15 8 32 -1 18 1 37 4 42 3 6 7 50 8 98 l2 89
-166 -2 -167 -1 2 39 c5 92 -43 168 -132 209 l-50 24 42 0 c30 0 50 7 70 24
l28 24 1 168 c1 92 -2 179 -7 193 -14 38 -46 55 -114 57 -33 2 -63 3 -67 3 -5
1 -8 107 -8 236 l0 236 -82 -3 c-46 -2 -123 -8 -173 -14z"/>
<path d="M3220 2730 c-9 -6 -10 -10 -3 -10 6 0 15 5 18 10 8 12 4 12 -15 0z"/>
<path d="M3095 2530 c3 -5 8 -10 11 -10 2 0 4 5 4 10 0 6 -5 10 -11 10 -5 0
-7 -4 -4 -10z"/>
<path d="M3060 2410 c-9 -6 -10 -10 -3 -10 6 0 15 5 18 10 8 12 4 12 -15 0z"/>
</g>
</svg>
