<?xml version="1.0" encoding="utf-8"?>
<!-- Generator: Adobe Illustrator 22.0.0, SVG Export Plug-In . SVG Version: 6.00 Build 0)  -->
<svg version="1.1" id="Layer_1" xmlns="http://www.w3.org/2000/svg" xmlns:xlink="http://www.w3.org/1999/xlink" x="0px" y="0px"
	 viewBox="0 0 308.5 29.2" style="enable-background:new 0 0 308.5 29.2;" xml:space="preserve">
<style type="text/css">
	.st0{fill:#F75F1C;}
</style>
<path class="st0" d="M20.7,14c0,0.5,0,1-0.1,1.4c-0.1,0.4-0.1,0.8-0.3,1.2c-0.1,0.4-0.3,0.8-0.5,1.2c-0.2,0.4-0.4,0.9-0.7,1.4
	c0,0.1-0.1,0.2-0.2,0.3c-0.1,0.1-0.2,0.3-0.4,0.5c-0.1,0.2-0.3,0.4-0.4,0.5c-0.2,0.2-0.3,0.4-0.4,0.5c-0.1,0.1-0.2,0.2-0.3,0.4
	c-0.1,0.2-0.2,0.3-0.3,0.4c-0.1,0.1-0.2,0.2-0.4,0.4c-0.2,0.1-0.3,0.2-0.4,0.3c-0.1,0.1-0.3,0.2-0.4,0.4c-0.1,0.2-0.3,0.3-0.4,0.4
	c-0.1,0-0.1,0.1-0.3,0.1c-0.1,0-0.2,0.1-0.3,0.2c-0.1,0.2-0.2,0.4-0.3,0.7c0,0.3-0.1,0.5-0.1,0.8l0.2,1.9c0,0.1,0,0.3-0.1,0.6
	c-0.1,0.2-0.2,0.4-0.4,0.4c-0.2,0-0.3-0.1-0.4-0.3c-0.1-0.2-0.1-0.4-0.1-0.5c0-0.2,0.1-0.5,0.2-1c0.1-0.4,0.2-1,0.2-1.6
	c0-0.3,0-0.5-0.1-0.6c0-0.1-0.1-0.2-0.2-0.3s-0.2-0.1-0.3-0.1c-0.1,0-0.3,0-0.5,0c-0.1,0-0.3,0-0.3,0.1c-0.1,0.1-0.2,0.2-0.3,0.4
	c0,0.1-0.1,0.2-0.3,0.2c-0.2,0.1-0.3,0.2-0.4,0.3c-0.1,0.2-0.1,0.3-0.1,0.5c0,0.1,0,0.3,0,0.4c0,0.1,0,0.3,0,0.4
	c0,0.1-0.1,0.3-0.2,0.4c0,0-0.1,0-0.2,0c-0.1,0-0.2-0.1-0.2-0.1c-0.2-0.2-0.3-0.4-0.4-0.8c-0.1-0.3-0.1-0.6-0.2-0.8
	c-0.1-0.2-0.2-0.4-0.5-0.6c-0.3-0.2-0.5-0.3-0.6-0.3c-0.1,0-0.3,0.1-0.5,0.2c-0.2,0.1-0.3,0.3-0.4,0.5c0,0.1-0.1,0.2-0.1,0.4
	c0,0.2,0,0.3,0,0.3l0.2,2.6c0,0.3,0,0.5-0.1,0.7c-0.1,0.2-0.2,0.3-0.6,0.3c-0.2,0-0.3,0-0.4-0.1c-0.1-0.1-0.1-0.2-0.2-0.3
	s0-0.2,0-0.3c0-0.1,0-0.2,0-0.3l0.3-3c0-0.1,0-0.2-0.1-0.4c0-0.2-0.1-0.4-0.2-0.5c-0.1-0.2-0.2-0.3-0.3-0.5
	c-0.1-0.1-0.3-0.2-0.4-0.2c-0.1,0-0.3,0.1-0.5,0.2c-0.2,0.2-0.3,0.3-0.4,0.5c0,0.2-0.1,0.3-0.1,0.5c0,0.2-0.1,0.4-0.2,0.5
	c0,0.1-0.1,0.1-0.1,0.1c-0.1,0-0.1,0-0.2,0c-0.1,0-0.2,0-0.3,0c-0.1,0-0.2-0.1-0.2-0.2c0-0.4-0.1-0.7-0.1-1.1c0-0.4,0-0.8-0.1-1.2
	c0-0.3-0.2-0.5-0.4-0.7c-0.3-0.2-0.5-0.3-0.7-0.4c-0.2-0.1-0.3-0.2-0.5-0.5c-0.2-0.2-0.3-0.4-0.4-0.5c-0.2-0.2-0.4-0.5-0.6-0.7
	c-0.2-0.2-0.4-0.5-0.5-0.7c-0.1-0.3-0.3-0.6-0.4-1c-0.2-0.4-0.3-0.7-0.4-1.1c-0.1-0.3-0.2-0.6-0.3-0.9C0,15.8,0,15.7,0,15.7V12
	c0-0.1,0-0.2,0.1-0.5c0.1-0.3,0.2-0.5,0.2-0.7c0.3-0.7,0.5-1.4,0.8-1.9c0.3-0.5,0.6-1.1,1.1-1.7c0.4-0.6,0.9-1.1,1.5-1.5
	c0.6-0.4,1.1-0.8,1.5-1c0.3-0.1,0.6-0.3,1-0.4C6.6,4.2,6.9,4.1,7.3,4c0.5-0.1,1-0.3,1.5-0.3c0.5-0.1,1-0.1,1.6-0.1
	c0.7,0,1.4,0.1,2.1,0.2c0.8,0.1,1.5,0.4,2.3,0.7c0.8,0.3,1.5,0.8,2.2,1.3c0.7,0.6,1.4,1.2,2,2.1c0.3,0.4,0.5,0.7,0.6,1.1
	c0.1,0.4,0.3,0.7,0.4,1.1c0.1,0.2,0.2,0.5,0.3,0.8c0.1,0.4,0.2,0.7,0.3,1c0,0.2,0,0.4,0.1,0.6c0,0.2,0,0.4,0,0.6c0,0.2,0,0.4,0,0.5
	C20.7,13.9,20.7,14,20.7,14z M17.9,14.2c0-0.4,0-0.9-0.1-1.3c-0.1-0.4-0.1-0.8-0.2-1.1c-0.1,0.6-0.3,1.2-0.8,1.9
	c-0.5,0.7-1,1.3-1.7,1.8v0.2c0,0.2,0,0.4,0.1,0.5c0.1,0.1,0.1,0.2,0.1,0.4c0,0.1-0.1,0.2-0.2,0.3c-0.1,0.1-0.4,0.2-0.8,0.4l-0.1-0.1
	L14,15.9c-0.1,0.1-0.4,0.1-0.6,0.2c-0.3,0.1-0.6,0.1-0.9,0.2c-0.3,0.1-0.6,0.1-0.9,0.2c-0.3,0-0.5,0.1-0.7,0.1H9.7v1.1H9.2
	c-0.1,0-0.3,0-0.6,0c-0.2,0-0.4,0-0.5-0.1c0-0.2,0-0.4,0-0.5c0-0.2,0-0.3,0-0.5c-0.5,0-0.9,0-1.3-0.1c-0.4,0-0.8-0.2-1.3-0.4
	c-0.1,0.1-0.2,0.2-0.3,0.4c-0.1,0.1-0.2,0.2-0.2,0.2c-0.1,0-0.2,0-0.4-0.1c-0.2-0.1-0.3-0.2-0.4-0.3l0.6-0.7
	c-0.2-0.1-0.5-0.3-0.7-0.5c-0.3-0.2-0.5-0.5-0.7-0.7C3.2,14,3,13.7,2.8,13.5c-0.2-0.3-0.3-0.5-0.3-0.7c0,0.1-0.1,0.3-0.1,0.5
	c0,0.2,0,0.3,0,0.4c0,0.5,0.1,1.1,0.3,1.7c0.2,0.6,0.4,1.1,0.6,1.4c0.2,0.3,0.4,0.6,0.6,0.9c0.3,0.3,0.5,0.6,0.8,0.8
	c0.3,0.3,0.6,0.5,0.9,0.7c0.3,0.2,0.6,0.4,0.9,0.5c0.1-0.2,0.2-0.3,0.2-0.5c0.1-0.2,0.2-0.3,0.3-0.5C7.4,18.7,7.7,18.9,8,19
	c0,0.1,0,0.3,0,0.5c0,0.2,0,0.3,0,0.5h3.7v-0.4c0-0.1,0-0.1,0-0.2c0-0.1,0-0.2,0-0.2c0.3-0.1,0.5-0.2,0.8-0.3
	c0.2-0.1,0.5-0.1,0.7-0.2c0.1,0.2,0.2,0.4,0.3,0.6c0.1,0.2,0.2,0.4,0.3,0.6h0.2c0.2-0.1,0.5-0.2,0.8-0.4c0.3-0.1,0.5-0.3,0.8-0.5
	c0.3-0.2,0.5-0.4,0.7-0.6c0.2-0.2,0.4-0.4,0.5-0.7c-0.1-0.1-0.2-0.1-0.2-0.2c-0.1-0.1-0.2-0.1-0.2-0.2c0.2-0.2,0.3-0.4,0.4-0.6
	c0.1-0.2,0.2-0.3,0.4-0.3c0.1,0,0.1,0,0.3,0c0.1,0,0.2,0,0.3,0.1c0.1-0.1,0.1-0.3,0.2-0.5s0.1-0.4,0.1-0.6c0-0.2,0.1-0.4,0.1-0.7
	C17.9,14.5,17.9,14.3,17.9,14.2z M8.7,11.6c-0.1-0.2-0.2-0.5-0.4-0.9c-0.2-0.3-0.4-0.7-0.5-1C7.5,9.3,7.3,9,7.2,8.7
	C7,8.4,6.8,8.2,6.6,8C6.4,8.2,6.2,8.4,6,8.7C5.7,9,5.5,9.4,5.3,9.8c-0.2,0.4-0.4,0.8-0.5,1.2c-0.1,0.4-0.2,0.7-0.2,0.9
	c0,0.1,0,0.1,0,0.1c0,0,0,0,0,0L6.3,12c0.2,0,0.4,0,0.7,0c0.2,0,0.5-0.1,0.7-0.1c0.2,0,0.4-0.1,0.6-0.2C8.5,11.7,8.6,11.6,8.7,11.6z
	 M11.5,14.8c-0.1-0.2-0.2-0.4-0.3-0.7c-0.1-0.2-0.2-0.5-0.4-0.7c-0.1-0.2-0.2-0.4-0.4-0.6c-0.1-0.2-0.2-0.4-0.3-0.5
	c-0.2,0.4-0.3,0.8-0.6,1.2c-0.2,0.4-0.4,0.8-0.6,1.3L11.5,14.8z M15.8,11.1c-0.1-0.2-0.2-0.5-0.3-0.8c-0.1-0.3-0.3-0.6-0.4-1
	c-0.2-0.3-0.4-0.7-0.6-1c-0.2-0.3-0.5-0.6-0.8-0.9c0,0-0.1,0-0.1-0.1c0,0-0.1,0-0.1,0c-0.1,0.3-0.2,0.5-0.4,0.8
	c-0.1,0.3-0.3,0.6-0.4,0.9c-0.1,0.3-0.3,0.6-0.4,1c-0.1,0.3-0.2,0.6-0.3,0.9c-0.1,0-0.1,0.1-0.1,0.2v0.2h2.3c0,0,0.1,0,0.3,0
	c0.1,0,0.3,0,0.5-0.1c0.2,0,0.4-0.1,0.5-0.1C15.5,11.1,15.7,11.1,15.8,11.1z"/>
<path d="M35.8,19.2l-0.2,1.1v0.4l0.2,0.8v1c0,0.1,0,0.1-0.1,0.2c-0.1,0-0.1,0.1-0.2,0.1c-0.1,0-0.1,0-0.2,0.1c-0.1,0-0.1,0-0.1,0.1
	c-0.1,0-0.1,0.1-0.2,0.2s-0.2,0.1-0.2,0.1h-1c-0.1,0-0.2,0-0.4-0.1c-0.2-0.1-0.3-0.1-0.4-0.1c-0.1,0-0.1,0-0.3,0.1
	c-0.1,0-0.2,0.1-0.3,0.1h-0.6l-0.2,0.5v1.1c0,0.1,0,0.1,0.1,0.1c0,0,0.1,0,0.1,0.1v1.4c0,0.1,0.1,0.1,0.2,0.2v0.4
	C31.8,27,31.7,27,31.5,27c-0.1,0-0.2,0-0.2-0.1c-0.1,0-0.1-0.1-0.1-0.2c0-0.1-0.1-0.1-0.1-0.2c-0.1-0.1-0.1-0.2-0.2-0.2v-0.6
	l0.2-0.5l-0.1-0.8l0.1-1.2c-0.1-0.1-0.2-0.1-0.2-0.1c-0.1,0-0.2,0.1-0.4,0.3c-0.2,0.2-0.4,0.3-0.6,0.4c-0.1,0-0.1,0.1-0.1,0.2
	c0,0.1-0.1,0.2-0.1,0.2h-0.2L28.2,24c-0.2,0-0.4,0.1-0.5,0.2c-0.1,0.1-0.1,0.2-0.1,0.3l-0.1,0.8c-0.1,0.1-0.2,0.1-0.4-0.1l-0.1-1
	c-0.1-0.4-0.1-0.6-0.2-0.8c-0.1-0.2-0.3-0.2-0.5-0.2c-0.2,0-0.4,0-0.5,0.1c-0.1,0.1-0.2,0.2-0.2,0.3s-0.1,0.2-0.2,0.3
	c-0.1,0.1-0.1,0.2-0.3,0.3c0,0-0.1,0-0.1,0c-0.1,0-0.1,0-0.1,0.1c-0.1,0.1-0.2,0.4-0.3,0.7c-0.1,0.3-0.1,0.5-0.1,0.7l-0.1,1.3
	l0.2,1.1c0,0.1,0,0.2-0.1,0.4c-0.1,0.2-0.2,0.3-0.3,0.3c-0.2,0-0.3-0.1-0.4-0.3c-0.1-0.2-0.1-0.3-0.1-0.4l0.1-1.9
	c0-0.1,0.1-0.2,0.1-0.3s0-0.2,0-0.3c0,0,0-0.1-0.1-0.1c0,0,0-0.1,0-0.1v-0.9c0-0.2-0.1-0.3-0.2-0.5s-0.3-0.3-0.5-0.4
	c-0.2-0.1-0.4-0.2-0.5-0.2c-0.2-0.1-0.3-0.1-0.3-0.1c0,0-0.1-0.1-0.1-0.1c0,0,0-0.1-0.1-0.1c0,0-0.1-0.1-0.2-0.1
	c-0.1,0-0.2-0.1-0.2-0.2V5.8l0.2-1V4.1C21.9,4,22,4,22.1,3.9c0.1-0.1,0.2-0.1,0.2-0.1L26,3.9c0.1,0,0.1,0.1,0.2,0.1
	c0.1,0,0.1,0.1,0.2,0.2v7.1c0,0.1,0,0.2,0.1,0.3c0,0.1,0,0.3,0,0.4l-0.2,1.4l0.1,3.7l0.1,1c0,0.2,0.1,0.4,0.3,0.7c0.5,0,1,0,1.4,0
	c0.4,0,0.9,0,1.5,0c0.6,0,1.3,0,2.2,0c0.9,0,2,0,3.5-0.1c0.2,0,0.3,0.1,0.4,0.2C35.8,19.1,35.8,19.2,35.8,19.2z"/>
<path d="M54.7,13.3L54.6,14c-0.1,0.3-0.1,0.6-0.2,1c-0.1,0.3-0.1,0.7-0.2,1c0,0.1-0.1,0.3-0.2,0.5c-0.1,0.2-0.2,0.4-0.2,0.5
	c-0.1,0.3-0.3,0.6-0.4,0.9c-0.1,0.3-0.3,0.7-0.5,1c-0.2,0.3-0.4,0.6-0.7,1c-0.3,0.3-0.5,0.6-0.9,0.8c-0.1,0.1-0.3,0.2-0.5,0.4
	c-0.2,0.1-0.4,0.3-0.6,0.4c-0.1,0.1-0.2,0.2-0.2,0.4c-0.1,0.2-0.1,0.3-0.1,0.5c0,0-0.1,0.1-0.1,0.1c0,0,0,0.1,0,0.1v0.4
	c0,0.1,0,0.1,0,0.2c0,0.1,0,0.1,0,0.1c0,0,0,0-0.1,0.1c0,0-0.1,0.1-0.1,0.1v0.6C49.5,24,49.4,24,49.3,24c-0.2,0-0.3-0.1-0.4-0.2
	c-0.1-0.2-0.1-0.3-0.1-0.3v-0.4c0-0.2-0.1-0.4-0.3-0.6c-0.2-0.2-0.4-0.3-0.6-0.3s-0.4,0.1-0.5,0.2c-0.1,0.1-0.2,0.3-0.3,0.5
	c-0.1,0.2-0.1,0.3-0.1,0.5c0,0.2,0,0.3,0,0.3l0.3,2.8c0,0.1,0,0.1,0,0.2c0,0.1,0,0.2-0.1,0.3c0,0.1-0.1,0.2-0.2,0.3
	c-0.1,0.1-0.2,0.1-0.3,0.1c-0.1,0-0.3,0-0.4-0.1c-0.1-0.1-0.2-0.2-0.2-0.3c0-0.1-0.1-0.2-0.1-0.3c0-0.1,0-0.2,0-0.2l0.2-2.6
	c0-0.1,0-0.2-0.1-0.4c0-0.1-0.1-0.3-0.2-0.4c-0.1-0.1-0.2-0.2-0.3-0.3c-0.1-0.1-0.2-0.1-0.4-0.1c-0.2,0-0.3,0.1-0.5,0.2
	c-0.2,0.1-0.3,0.2-0.4,0.4c-0.1,0.1-0.2,0.3-0.2,0.5c0,0.2-0.1,0.4-0.1,0.6c-0.1,0.2-0.1,0.4-0.2,0.5C43.9,25,43.8,25,43.7,25
	c-0.1,0-0.2,0-0.2-0.1c0-0.1-0.1-0.2-0.1-0.4l-0.1-0.7c0-0.2-0.1-0.3-0.2-0.5c-0.2-0.1-0.3-0.2-0.4-0.3c0,0-0.1-0.1-0.1-0.2
	c0-0.1-0.1-0.2-0.1-0.2c-0.1-0.1-0.2-0.2-0.2-0.2c-0.1,0-0.1,0-0.2,0l-0.8,0.1c-0.1,0-0.2,0.1-0.3,0.2V24l0.3,1.4
	c0,0.4-0.2,0.6-0.4,0.6c-0.1,0-0.2,0-0.2-0.1c-0.1-0.1-0.1-0.1-0.1-0.2v-0.8l0.1-0.5l0.1-0.8c0-0.1-0.1-0.3-0.1-0.5
	c0-0.2-0.1-0.4-0.3-0.6l-1.9,0.1c-0.1,0.3-0.1,0.6-0.1,1c0,0.4,0,0.8,0.1,1.2c0,0.4,0.1,0.8,0.1,1.2c0,0.4,0.1,0.8,0.1,1.2
	c0,0.1,0,0.2,0,0.4c0,0.2-0.1,0.3-0.3,0.3c-0.1,0-0.2-0.1-0.3-0.2c-0.1-0.1-0.2-0.2-0.2-0.4v-4.3c0-0.1-0.1-0.3-0.2-0.4
	c-0.2-0.1-0.3-0.2-0.4-0.3v-1.8c0.1-0.1,0.1-0.1,0.1-0.2c0-0.1,0.1-0.2,0.1-0.3c0-0.4-0.1-0.9-0.1-1.3c0-0.4-0.1-0.9-0.1-1.3
	c0-1.4,0-2.9,0-4.6c0-1.6,0-3.5-0.1-5.5L37,6.2V3.3c1.3,0,2.4,0,3.2,0c0.8,0,1.3,0,1.7,0c0.4,0,0.7,0,0.8,0c0.1,0,0.3,0,0.4,0
	c0.1,0,0.3,0,0.5,0c0.2,0,0.6,0,1.1,0l2.7,0.4c0.3,0.1,0.6,0.2,0.9,0.3C48.5,3.9,48.7,4,49,4.1c0.5,0.2,0.9,0.5,1.5,0.8
	c0.5,0.3,1,0.7,1.5,1.2c0.5,0.4,0.9,0.9,1.2,1.4c0.4,0.5,0.6,1,0.7,1.5c0.1,0.2,0.1,0.4,0.2,0.6c0.1,0.2,0.1,0.4,0.2,0.7
	c0,0.2,0,0.4,0.1,0.6c0,0.2,0.1,0.4,0.1,0.7L54.7,13.3z M49.9,12.5l-0.1-0.9c0-0.3-0.1-0.7-0.3-1.1c-0.2-0.4-0.4-0.7-0.6-1
	c0,0-0.1-0.1-0.1-0.2c0-0.1-0.1-0.1-0.1-0.2C48.4,9,48.2,8.8,48,8.6c-0.2-0.2-0.4-0.4-0.7-0.5c-0.2-0.2-0.5-0.3-0.7-0.4
	c-0.2-0.1-0.4-0.2-0.6-0.2l-1.9-0.3c-0.8,0-1.3,0-1.7,0c-0.3,0-0.6,0-0.7,0c-0.1,0-0.2,0-0.2,0c0,0-0.1,0-0.3,0c0,0.6,0,1.1,0,1.7
	c0,0.5,0,1.1,0,1.8c0,0.7,0,1.4,0,2.4c0,0.9,0,2.1,0,3.5c0,0,0,0.2,0,0.4s0,0.4,0,0.7c0,0.2,0,0.5,0,0.7c0,0.2,0,0.3,0,0.3l2.8,0
	c0.2,0,0.5-0.1,0.7-0.1c0.3,0,0.6-0.1,1-0.1l0.8-0.1c0.1,0,0.2-0.1,0.3-0.1c0.1,0,0.2-0.1,0.2-0.1c0.2-0.1,0.4-0.3,0.7-0.5
	c0.3-0.2,0.5-0.4,0.7-0.6c0.2-0.2,0.4-0.5,0.6-0.7c0.2-0.3,0.3-0.6,0.3-0.9L49.9,12.5z"/>
<path d="M80.5,22.9c0,0.2-0.1,0.3-0.2,0.4c-0.1,0.1-0.3,0.1-0.5,0.2c-0.2,0-0.3,0-0.5,0c-0.2,0-0.2,0-0.3,0
	c-0.3,0.1-0.6,0.2-0.9,0.2c-0.3,0-0.5,0.2-0.6,0.4c-0.1,0.1-0.1,0.2-0.1,0.4c0,0.2,0,0.3,0,0.4l0.3,2.8c0,0.1,0,0.3-0.1,0.6
	c-0.1,0.2-0.2,0.4-0.5,0.4c-0.1,0-0.3,0-0.4-0.1c-0.1-0.1-0.2-0.2-0.2-0.3c0-0.1-0.1-0.2-0.1-0.3c0-0.1,0-0.2,0-0.2l0.2-2.6
	c0-0.3-0.1-0.6-0.2-0.8c-0.2-0.2-0.4-0.4-0.6-0.4c-0.2-0.3-0.5-0.7-0.8-1.1c-0.3-0.4-0.5-0.7-0.8-1.1c-0.1-0.1-0.2-0.3-0.2-0.5
	C74,21.3,74,21.1,73.9,21c-0.2-0.3-0.5-0.7-0.8-1.1c-0.3-0.4-0.6-0.8-0.8-1.1c-0.1-0.2-0.2-0.4-0.4-0.7c-0.1-0.3-0.3-0.6-0.5-0.8
	h-3.1v5.3c0,0.1,0,0.2,0,0.5c0,0.3,0,0.5-0.1,0.7c0,0.1-0.1,0.1-0.2,0.2c-0.1,0.1-0.2,0.1-0.2,0.2c-0.1,0.2-0.2,0.3-0.2,0.4
	c0,0.1-0.1,0.2-0.1,0.3c0,0.1,0,0.1,0,0.2c0,0.1,0,0.2,0,0.3l0.2,2.5c0,0.3,0,0.5-0.1,0.7c-0.1,0.2-0.3,0.3-0.6,0.3
	c-0.2,0-0.3,0-0.4-0.1c-0.1-0.1-0.1-0.2-0.2-0.3c0-0.1-0.1-0.2-0.1-0.3s0-0.2,0-0.3l0.3-3c0-0.1,0-0.3-0.1-0.4
	c0-0.2-0.1-0.3-0.2-0.5c-0.1-0.2-0.2-0.3-0.3-0.4c-0.1-0.1-0.3-0.2-0.4-0.2c-0.1,0-0.3,0.1-0.5,0.2c-0.2,0.2-0.3,0.3-0.4,0.5
	c0,0.2,0,0.4-0.1,0.6c0,0.2-0.1,0.4-0.1,0.5c0,0.1-0.1,0.1-0.2,0.1s-0.1,0-0.2,0c-0.1,0-0.2,0-0.3,0c-0.1,0-0.1-0.1-0.2-0.2
	c0-0.2-0.1-0.4-0.1-0.7c0-0.3,0-0.6-0.1-0.8c0-0.2-0.1-0.4-0.1-0.7c-0.1-0.3-0.1-0.4-0.1-0.5l0.1-16.4c0-0.2,0.1-0.4,0.1-0.6
	c0-0.2,0-0.4,0-0.6c0,0-0.1-0.1-0.1-0.2c0-0.4,0.1-0.6,0.3-0.6c0.2,0,0.5,0,0.9,0c0.1-0.3,0.1-0.6,0.2-0.9c0-0.4,0-0.7,0-0.9
	c0.2,0.3,0.4,0.5,0.6,0.8c0.2,0.3,0.4,0.5,0.5,0.8c0-0.1,0-0.3,0-0.6c0-0.3,0-0.4,0-0.5c0-0.2,0-0.5,0-0.9c0-0.4-0.1-0.9-0.2-1.4
	l2.1,3.1c0-0.1,0.1-0.3,0.2-0.5c0.1-0.2,0.2-0.5,0.3-0.8C68.7,1.6,68.9,1.3,69,1c0.1-0.3,0.3-0.4,0.4-0.6c0.1,0,0.1,0.1,0.1,0.2
	c0,0.1,0,0.2,0,0.4c0,0.1,0,0.3,0,0.4c0,0.1,0.1,0.2,0.1,0.1c0.1,0.2,0.1,0.3,0.2,0.5c0.1,0.2,0.1,0.4,0.1,0.5c0,0.1,0,0.2,0,0.3
	c0,0.1,0,0.3,0.2,0.3c0-0.1,0.1-0.3,0.1-0.4c0-0.1,0.1-0.2,0.1-0.4L71,3.4c0.1-0.3,0.2-0.5,0.2-0.8c0.1-0.3,0.1-0.6,0-0.8
	c0.2,0.1,0.3,0.2,0.5,0.5c0.2,0.3,0.3,0.5,0.3,0.7c0.1-0.1,0.3-0.2,0.3-0.4c0.1-0.2,0.1-0.3,0.2-0.5c0.1,0.1,0.3,0.3,0.5,0.6
	c0.2,0.2,0.4,0.5,0.5,0.8c0.1,0.1,0.1,0.2,0.2,0.2c0.1,0,0.1,0,0.1,0c0.1,0,0.2,0,0.3,0v0.4c0.1,0.1,0.2,0.1,0.4,0.2
	c0.1,0,0.2,0.1,0.4,0.1c0.1,0,0.3,0.1,0.5,0.1c0.2,0,0.3,0.1,0.5,0.1c0.1,0,0.4,0.1,0.7,0.3c0.3,0.2,0.6,0.4,0.9,0.6
	c0.1,0.1,0.2,0.2,0.4,0.3c0.2,0.1,0.4,0.2,0.5,0.4c0.1,0.1,0.2,0.2,0.3,0.3c0.1,0.1,0.2,0.3,0.4,0.5c0.1,0.2,0.2,0.4,0.4,0.5
	c0.1,0.2,0.2,0.4,0.3,0.5C80,8,80.1,8.2,80.2,8.4c0.1,0.2,0.1,0.4,0.1,0.5c0,0.2,0,0.3,0,0.4c0,0.1,0,0.3,0,0.5c0,0.5,0,0.9-0.1,1.4
	c-0.1,0.5-0.2,1-0.4,1.5c-0.2,0.5-0.5,0.9-0.8,1.4c-0.3,0.4-0.8,0.9-1.3,1.2c-0.1,0.1-0.2,0.2-0.4,0.3c-0.2,0.1-0.3,0.3-0.4,0.3
	c-0.1,0.1-0.3,0.2-0.5,0.2c-0.2,0.1-0.3,0.2-0.5,0.2c0.1,0.2,0.3,0.4,0.4,0.7c0.1,0.2,0.3,0.4,0.4,0.6c0.4,0.6,0.9,1.3,1.4,2.1
	c0.5,0.8,1,1.5,1.5,2.2c0.1,0.2,0.3,0.3,0.5,0.5C80.4,22.7,80.5,22.8,80.5,22.9z M75.5,9.8c0-0.1,0-0.2,0-0.2c0-0.1,0-0.2,0-0.2
	c-0.1-0.3-0.3-0.6-0.6-0.9c-0.3-0.3-0.6-0.5-0.8-0.5c-0.1,0-0.3,0-0.5,0c-0.2,0-0.4,0-0.5,0c-0.2,0-0.3,0-0.5,0s-0.2,0-0.2,0h-4.1
	v1.5l0.2,1.4v2.5h4.1c0.2,0,0.5-0.1,0.7-0.2c0.3-0.1,0.5-0.2,0.8-0.4c0.3-0.2,0.5-0.4,0.7-0.7c0.2-0.3,0.3-0.5,0.4-0.8
	c0-0.1,0.1-0.2,0.1-0.3c0.1-0.1,0.1-0.2,0.1-0.3c0-0.1,0-0.3,0.1-0.5C75.5,9.9,75.5,9.8,75.5,9.8z"/>
<path class="st0" d="M88.2,13.3c0,0.1,0,0.2,0,0.5c0,0.3,0,0.5,0,0.7c0,0.1,0,0.2-0.1,0.3c0,0.1-0.1,0.2-0.1,0.3v2c0,0,0,0.1,0,0.2
	c0,0.1,0,0.3-0.1,0.4c0,0.2,0,0.3-0.1,0.5c0,0.2-0.1,0.3-0.1,0.5c-0.1,0.5-0.2,1.1-0.4,1.7c-0.1,0.6-0.3,1.1-0.4,1.7
	c0,0.1-0.1,0.2-0.1,0.2c-0.1,0.1-0.1,0.2-0.1,0.3c0,0.1-0.1,0.3,0,0.5c0,0.2-0.1,0.4-0.2,0.6c0,0.1-0.1,0.1-0.2,0.1
	c-0.1,0-0.2,0-0.2,0c-0.1-0.1-0.2-0.2-0.2-0.3c0-0.1,0-0.2,0-0.4c0-0.1,0-0.2,0-0.4c0-0.1-0.1-0.2-0.3-0.3c-0.2,0.1-0.3,0.3-0.3,0.5
	c0,0.2-0.1,0.4-0.1,0.5C85,23.9,85,24.1,85,24.4c0,0.3,0,0.5,0.1,0.7c0,0.1,0,0.3,0,0.5c0,0.2,0,0.3,0,0.5c0,0.1-0.1,0.2-0.1,0.3
	c-0.1,0.1-0.2,0.1-0.3,0.1c-0.1,0-0.3-0.1-0.4-0.2c-0.1-0.2-0.2-0.3-0.2-0.4c0-0.1,0-0.3,0.1-0.5c0-0.2,0.1-0.4,0.1-0.6
	c0,0,0-0.1,0-0.2c0-0.1,0-0.3-0.1-0.4c0-0.1-0.1-0.3-0.1-0.4c0-0.1-0.1-0.2-0.2-0.2c-0.1,0-0.1,0-0.1,0c0,0-0.1,0-0.1,0
	c-0.1,0-0.3-0.1-0.4-0.2c-0.1-0.2-0.2-0.5-0.2-0.8c0-0.3-0.1-0.6-0.1-0.8c-0.1-0.2-0.1-0.4-0.3-0.6c-0.1-0.3-0.2-0.5-0.3-0.8
	c-0.1-0.5-0.2-1-0.2-1.5c-0.1-0.5-0.1-1-0.2-1.5c0-0.1,0-0.2-0.1-0.4s-0.1-0.3-0.1-0.5c0-0.2-0.1-0.3-0.1-0.5c0-0.1,0-0.2,0-0.3
	v-4.2c0-0.2,0-0.6,0.1-1.1c0.1-0.5,0.2-1,0.3-1.4c0-0.1,0.1-0.1,0.2-0.2c0.1,0,0.2-0.1,0.2-0.2c0.1-0.1,0.1-0.2,0.1-0.4
	c0-0.1,0-0.3,0.1-0.4l0-2.4l0.2-1c0,0,0-0.1,0-0.1s0-0.1-0.1-0.1c-0.1,0-0.2,0.1-0.2,0.2c-0.1,0.1-0.2,0.1-0.3,0.1s-0.2,0-0.2-0.1
	C82,4.5,82,4.4,82,4.4c0-0.1,0-0.2,0.1-0.4c0.1-0.1,0.2-0.3,0.4-0.4c0.1-0.1,0.3-0.3,0.4-0.4C83.1,3.1,83.2,3,83.3,3
	c0.1,0,0.3,0,0.5,0c0.2,0,0.4,0,0.4,0c0.1,0,0.2,0,0.4,0c0.2,0,0.4,0,0.5,0c0.3,0.1,0.6,0.3,0.8,0.7c0.2,0.3,0.4,0.6,0.6,0.9
	c0,0.1,0.1,0.2,0.1,0.4c0,0.2,0,0.3,0.1,0.4c0,0.1,0,0.1,0,0.2c0,0,0,0.1,0.1,0.2c0,0.2,0.1,0.4,0.1,0.6c0,0.2,0,0.4,0,0.4v1.8
	c0.1,0.1,0.2,0.2,0.3,0.4c0.1,0.1,0.2,0.3,0.3,0.5c0.1,0.2,0.2,0.4,0.2,0.7c0.1,0.6,0.2,1,0.3,1.3c0.1,0.3,0.1,0.5,0.1,0.7
	c0,0.2,0,0.4,0,0.5C88.2,12.8,88.2,13,88.2,13.3z M85.9,6.5c0,0,0-0.1,0-0.2c0-0.1-0.1-0.1-0.2-0.1c0,0-0.1,0-0.1,0
	c-0.1,0-0.1,0-0.2,0c-0.1,0-0.2,0-0.3-0.1c-0.1-0.1-0.2-0.2-0.2-0.3c0-0.2,0.1-0.3,0.2-0.4c0,0,0.1,0,0.2,0c0.1,0,0.2,0,0.2,0
	c0.1,0,0.2,0,0.2-0.1c0.1,0,0.1-0.1,0.1-0.2c0-0.1-0.1-0.2-0.3-0.3c-0.2-0.1-0.3-0.2-0.4-0.2c0,0-0.1,0-0.2,0s-0.1,0-0.2,0
	c-0.2,0-0.3,0-0.5,0.1c-0.2,0-0.3,0.2-0.5,0.4v0.3c0.2,0,0.4,0.1,0.5,0.2c0.1,0.1,0.2,0.2,0.2,0.4c0,0.1,0,0.2-0.1,0.3
	c-0.1,0.1-0.2,0.1-0.3,0.1c-0.1,0-0.1,0-0.2-0.1c-0.1-0.1-0.1-0.1-0.2-0.1c-0.1,0-0.1,0-0.1,0c0,0,0,0-0.1,0c0,0.1,0,0.1,0,0.1
	c0,0,0,0.1,0,0.1s0,0.2,0.1,0.4c0,0.2,0.1,0.4,0.1,0.5c0.1,0.1,0.3,0.3,0.5,0.6c0.2,0.3,0.4,0.4,0.6,0.4h0.2c0.1,0,0.1,0,0.2-0.1
	s0.1-0.2,0.2-0.2c0.1-0.1,0.2-0.1,0.2-0.2c0.1-0.1,0.2-0.1,0.2-0.2c0.1-0.2,0.2-0.4,0.2-0.6C85.9,6.7,85.9,6.6,85.9,6.5z M85.3,7.6
	c-0.1,0-0.3,0-0.5-0.1c-0.2-0.1-0.4,0-0.7,0.1c0,0,0,0,0-0.1c0,0,0-0.1,0-0.2c0.1,0,0.2-0.1,0.3-0.1c0.1,0,0.2,0,0.3,0
	c0.1,0,0.2,0,0.3,0c0.1,0,0.3,0.1,0.4,0.1V7.6z M85,6.9c0,0-0.1,0-0.1,0c0,0-0.1,0.1-0.2,0.1c-0.1-0.1-0.1-0.2-0.1-0.2
	c0.1,0.1,0.1,0.1,0.2,0.1S84.9,6.9,85,6.9z"/>
<path d="M106.6,19.3c0,0.1-0.1,0.2-0.1,0.2c-0.1,0-0.2,0.1-0.2,0.1c-0.3,0.3-0.5,0.5-0.8,0.7c-0.3,0.2-0.5,0.4-0.7,0.7
	c-0.1,0.1-0.2,0.3-0.1,0.5c0,0.2,0,0.4,0,0.5c0,0.2-0.1,0.5-0.1,0.8c0,0.3,0,0.5-0.1,0.8c0,0.1-0.1,0.2-0.2,0.2c-0.1,0-0.2,0-0.2,0
	c-0.2,0-0.3,0-0.4-0.1c-0.1-0.1-0.1-0.2-0.1-0.3c0-0.1,0-0.3-0.1-0.4c0-0.1,0-0.3,0-0.3c0-0.2-0.1-0.3-0.3-0.5
	c-0.2-0.1-0.3-0.2-0.5-0.2c-0.2,0-0.3,0.1-0.4,0.2c-0.1,0.1-0.2,0.3-0.3,0.4c-0.1,0.2-0.1,0.3-0.1,0.5c0,0.2,0,0.3,0,0.4l0.3,2.9
	c0,0.1,0,0.2,0,0.3s0,0.2-0.1,0.3c0,0.1-0.1,0.2-0.2,0.3c-0.1,0.1-0.2,0.1-0.3,0.1c-0.2,0-0.3,0-0.4-0.1c-0.1-0.1-0.2-0.2-0.2-0.3
	c0-0.1-0.1-0.2-0.1-0.3c0-0.1,0-0.2,0-0.3l0.2-2.4c0-0.1,0-0.3,0-0.4c0-0.2-0.1-0.3-0.1-0.4c-0.1-0.1-0.2-0.3-0.3-0.3
	c-0.1-0.1-0.3-0.1-0.4-0.1c-0.1,0-0.1,0-0.1,0c0,0-0.1,0-0.1,0.1c-0.2,0-0.4,0.1-0.5,0.3c-0.1,0.1-0.2,0.3-0.3,0.5
	c-0.1,0.2-0.1,0.3-0.2,0.5c0,0.2-0.1,0.3-0.1,0.5c0,0.1,0,0.2-0.1,0.2c0,0.1-0.1,0.2-0.2,0.2c0,0-0.1,0.1-0.2,0.1
	c-0.1,0.1-0.2,0.1-0.3,0.1c-0.1-0.1-0.2-0.3-0.2-0.5c0-0.2,0-0.4,0-0.5c0-0.2-0.1-0.3-0.1-0.5c-0.1-0.2-0.2-0.3-0.5-0.4L97,22.8
	c-0.1-0.3-0.3-0.5-0.6-0.5c-0.2,0-0.4,0-0.5,0c-0.1,0-0.2,0-0.4,0.1c-0.1,0-0.2,0-0.3,0.1c0,0.1-0.1,0.3-0.1,0.4c0,0.2,0,0.3,0,0.3
	c0,0.3,0,0.6,0,0.7c0,0.2,0.1,0.3,0.1,0.5c0,0.1,0.1,0.2,0.1,0.3c0,0.1,0,0.3,0,0.4c0,0.2,0,0.3-0.1,0.4c-0.1,0.1-0.2,0.2-0.3,0.2
	c-0.2,0-0.3-0.1-0.3-0.2c0-0.1-0.1-0.3-0.1-0.5c0-0.2,0-0.4,0.1-0.7c0-0.3,0-0.5,0.1-0.8c0-0.3,0-0.5-0.1-0.8
	c-0.1-0.4-0.4-0.7-0.8-1c-0.4-0.3-0.7-0.6-1-0.9c-0.2-0.2-0.4-0.4-0.6-0.6c-0.2-0.2-0.4-0.4-0.6-0.7c-0.1-0.1-0.2-0.2-0.3-0.3
	c-0.1-0.2-0.2-0.3-0.3-0.5c-0.1-0.2-0.2-0.4-0.3-0.6c-0.1-0.2-0.2-0.4-0.2-0.5c0-0.1-0.1-0.3-0.2-0.4c-0.1-0.2-0.2-0.3-0.2-0.5
	c-0.1-0.2-0.2-0.4-0.3-0.7c-0.1-0.3-0.2-0.6-0.3-0.9c-0.1-0.3-0.2-0.7-0.2-1c-0.1-0.3-0.1-0.7-0.1-0.9l0.4-2.6l0,0c0,0,0-0.1,0-0.1
	c0,0,0,0,0-0.1c-0.2-0.4-0.4-0.7-0.6-1c-0.2-0.3-0.5-0.6-0.9-0.9L90,9c0,0,0,0,0-0.1V8.9c-0.2-0.3-0.5-0.5-0.7-0.8
	c-0.3-0.3-0.5-0.5-0.7-0.7c-0.1-0.1-0.3-0.3-0.5-0.4c-0.2-0.1-0.3-0.3-0.5-0.4l0.8,0.2h0l0.1-0.1l2.4,0.7h0.2V7.4
	c-0.1-0.2-0.2-0.4-0.2-0.5c-0.1-0.2-0.2-0.3-0.2-0.5c-0.1-0.2-0.1-0.4-0.1-0.7c0-0.2-0.1-0.5-0.1-0.7V4.9C90.5,5,90.6,5,90.8,5.1
	c0.2,0.1,0.4,0.2,0.5,0.3c0.2,0.1,0.3,0.2,0.5,0.4c0.2,0.1,0.3,0.3,0.5,0.4l0.1-0.1C92.5,6,92.4,6,92.3,5.8c-0.1-0.1-0.1-0.2,0-0.3
	c0.1,0,0.2,0.1,0.3,0.1c0.1,0,0.2,0,0.2,0c0.1,0,0.1,0,0.2,0c0.1,0,0.1,0,0.2-0.1c-0.1-0.2-0.2-0.4-0.3-0.5
	c-0.1-0.2-0.3-0.4-0.6-0.7c0,0,0,0,0.1,0c0,0,0.1,0,0.1,0c0.2,0,0.4,0,0.6,0.1c0.2,0.1,0.3,0.2,0.5,0.2c0,0,0,0,0,0c0,0,0,0,0-0.1
	c0-0.1,0-0.2-0.1-0.4c-0.1-0.2-0.1-0.3-0.1-0.4c0.2,0,0.4,0,0.7,0c0.3,0,0.5,0,0.7,0.1c0.1,0,0.3,0.1,0.5,0.1C95.6,4,95.8,4,95.8,4
	c0,0,0.1,0,0.3-0.1c0.2,0,0.3-0.1,0.5-0.1c0.2-0.1,0.4-0.1,0.6-0.2c0.2-0.1,0.4-0.1,0.5-0.1c0.1,0,0.3-0.1,0.6-0.1
	c0.2,0,0.4,0,0.4,0c0.9,0,1.8,0.1,2.7,0.2c0.9,0.2,1.7,0.4,2.5,0.9c0.1,0,0.2,0.1,0.3,0.3c0.2,0.1,0.3,0.2,0.4,0.3
	c0.1,0,0.3,0.1,0.4,0.2c0.2,0.1,0.4,0.2,0.5,0.3c0.2,0.1,0.3,0.3,0.4,0.4c0.1,0.1,0.2,0.3,0.2,0.5c0,0-0.1,0.2-0.2,0.4
	c-0.2,0.2-0.3,0.4-0.5,0.7c-0.2,0.2-0.4,0.5-0.6,0.7c-0.2,0.2-0.3,0.3-0.3,0.4c-0.1,0.2-0.3,0.4-0.5,0.6c-0.2,0.2-0.4,0.3-0.5,0.3
	c-0.1,0-0.2,0-0.2-0.1c0-0.1-0.1-0.2-0.2-0.2c-0.1,0-0.2-0.1-0.2-0.1c-0.1,0-0.2-0.1-0.3-0.2c0,0-0.1-0.1-0.3-0.2
	c-0.2-0.1-0.4-0.3-0.6-0.4c-0.2-0.1-0.4-0.3-0.7-0.4c-0.2-0.1-0.4-0.2-0.5-0.2c-0.1,0-0.1,0-0.2,0.1c-0.1,0.1-0.1,0.1-0.2,0.2
	c-0.1,0.1-0.1,0.1-0.2,0.2c-0.1,0.1-0.2,0.1-0.2,0.1c-0.2,0-0.3-0.1-0.4-0.3c-0.1-0.2-0.2-0.3-0.3-0.4H99c-0.1,0.2-0.2,0.3-0.2,0.5
	c-0.1,0.2-0.2,0.4-0.3,0.6c-0.2,0-0.4,0-0.6-0.1c-0.2-0.1-0.4-0.2-0.7-0.3c-0.1,0.1-0.1,0.2-0.1,0.3c0,0.1,0,0.3,0,0.4
	c0,0.1,0,0.2-0.1,0.3c-0.1,0.1-0.2,0.1-0.4,0.1l-1.1-0.1c0,0.1,0,0.3,0.1,0.5c0.1,0.2,0.1,0.4,0.1,0.5c-0.1,0.1-0.3,0.2-0.5,0.2
	c-0.2,0-0.4,0-0.6,0c0.1,0.1,0.1,0.3,0.2,0.4c0.1,0.2,0.1,0.3,0.1,0.3c0,0.1,0,0.2-0.1,0.3c-0.1,0-0.1,0.1-0.2,0.1
	c-0.1,0-0.2,0-0.3,0c-0.1,0-0.2,0-0.3,0.1c0.1,0.1,0.2,0.3,0.4,0.5c0.1,0.2,0.2,0.3,0.2,0.4c0,0.1,0,0.2-0.1,0.3
	c-0.1,0.1-0.1,0.1-0.2,0.2c-0.1,0-0.2,0.1-0.3,0.1s-0.1,0.1-0.2,0.1c0,0.1,0,0.2,0,0.3c0,0.1,0,0.2,0,0.2c0,0.3,0,0.7,0.1,1.1
	c0.1,0.4,0.2,0.8,0.4,1.1c0.2,0.4,0.4,0.7,0.7,1c0.3,0.3,0.7,0.6,1.1,0.7c0.1,0,0.2,0.1,0.4,0.1c0.1,0.1,0.3,0.1,0.4,0.2
	c0.5,0.2,0.9,0.4,1.3,0.4c0.3,0.1,0.6,0.1,0.9,0.1c0.8,0,1.4-0.1,1.9-0.3c0.5-0.2,0.9-0.4,1.2-0.6c0.3-0.2,0.6-0.4,0.8-0.6
	c0.2-0.2,0.4-0.3,0.5-0.3c0.2,0,0.5,0.1,0.8,0.4c0.3,0.2,0.7,0.5,1,0.8c0.3,0.3,0.6,0.6,0.8,0.9C106.4,19,106.6,19.2,106.6,19.3z"/>
<path d="M124.4,6.6V7c0,0.2,0,0.6,0,1c0,0.4,0,1.1,0,1.9v6.6c0,0.2,0,0.6-0.1,1.1c0,0.5,0,1-0.1,1.6c0,0.6,0,1.2-0.1,1.8
	c0,0.6,0,1.2-0.1,1.7c0,0.1,0,0.2-0.1,0.3c-0.1,0.1-0.2,0.2-0.2,0.2h-2.3c0,0-0.1,0-0.2,0c-0.1,0-0.3,0-0.4-0.1s-0.3-0.1-0.5-0.1
	c-0.2,0-0.3-0.1-0.4-0.1c0,0-0.1-0.1-0.1-0.2c0-0.1,0-0.2,0-0.2v-7.4h-1.3c-0.4,0.2-0.6,0.5-0.6,0.8v0.4c0,0.2-0.1,0.4-0.2,0.5
	c-0.1,0.1-0.3,0.2-0.4,0.2c0,0-0.1,0-0.1-0.1c-0.1,0-0.1-0.1-0.2-0.2v-0.7c0-0.1,0-0.1-0.1-0.2s-0.1-0.1-0.2-0.1
	c-0.1,0-0.1,0-0.2,0.1c-0.1,0.1-0.1,0.1-0.1,0.2c-0.2,0.5-0.3,0.9-0.4,1.3l0.1,0.9v1c0,0-0.1,0.1-0.2,0.2c-0.1,0.1-0.2,0.2-0.3,0.2
	c-0.1,0-0.2,0-0.2-0.1c-0.1-0.1-0.1-0.1-0.2-0.2c-0.1-0.1-0.1-0.2-0.1-0.2c0-0.1-0.1-0.1-0.1-0.2l0.1-0.7v-1c0-0.1,0-0.2-0.1-0.4
	c-0.1-0.2-0.2-0.3-0.3-0.3c-0.1,0-0.1,0-0.2,0c0,0-0.1,0-0.2,0c-0.2,0-0.3-0.1-0.4-0.4c-0.1-0.2-0.2-0.4-0.3-0.5c0,0,0,0-0.1-0.1
	c0,0-0.1,0-0.1,0c0,0-0.1-0.1-0.1-0.2c0-0.1,0-0.1-0.1-0.2h-0.8V20l0.1,0.5v2.9h-1.3c-0.1,0.1-0.1,0.2-0.1,0.4v0.5l-0.1,0.7
	c0,0-0.1,0-0.1,0c0,0,0,0-0.1,0c-0.1,0-0.2-0.1-0.2-0.3V24c0-0.2-0.1-0.3-0.2-0.4c-0.1,0-0.3-0.1-0.4-0.1l-1.3,0.2l-0.3-0.8
	c0,0-0.1,0.1,0,0.1c0,0,0,0-0.1,0c-0.1,0-0.2-0.1-0.3-0.2c-0.1-0.1-0.1-0.2-0.1-0.3v-0.2L108,6.8l0.1-0.5V3.7h2.4l0.5-0.1h1.1
	c0.1,0,0.2,0,0.2,0.1c0.1,0.1,0.1,0.2,0.1,0.2v0.6L112.4,5v6.2l7.5-0.1c0,0-0.1-0.1-0.1-0.1c0,0,0,0,0-0.1c0-0.7,0-1.4,0-1.9
	c0-0.6,0-1.1,0-1.7c0-0.5,0-1.1,0-1.7c0-0.6,0-1.2,0-1.9c0,0,0.1,0,0.2-0.1c0.1,0,0.1-0.1,0.2-0.1c0.1,0,0.1,0,0.1,0.1
	c0,0,0.1,0.1,0.1,0.1h1.8l0.5-0.1h0.8c0.1,0,0.1,0,0.2,0.1c0.1,0,0.2,0.1,0.2,0.1c0.1,0.1,0.1,0.1,0.1,0.2c0,0.1,0.1,0.2,0.1,0.2
	L124.4,6.6z"/>
<path d="M145.3,23.2c0,0.1,0,0.2,0,0.2c0,0-0.1,0.1-0.1,0.1c-0.1,0-0.1,0.1-0.2,0.2c-0.1,0.1-0.2,0.2-0.2,0.3
	c-0.1,0.1-0.1,0.2-0.1,0.4c0,0.2,0,0.3,0,0.4l0.2,2.6c0,0.3,0,0.5-0.1,0.7c-0.1,0.2-0.3,0.3-0.6,0.3c-0.2,0-0.3,0-0.4-0.1
	c-0.1-0.1-0.1-0.2-0.2-0.3s0-0.2,0-0.3s0-0.2,0-0.3l0.3-3c0-0.1,0-0.2-0.1-0.4c0-0.2-0.1-0.4-0.2-0.5c-0.1-0.2-0.2-0.3-0.3-0.5
	c-0.1-0.1-0.3-0.2-0.4-0.2c-0.1,0-0.3,0.1-0.5,0.2c-0.2,0.2-0.3,0.3-0.4,0.5c0,0.2-0.1,0.3-0.1,0.5c0,0.2-0.1,0.4-0.1,0.5
	c0,0.1-0.1,0.1-0.2,0.1c-0.1,0-0.1,0-0.2,0c-0.1,0-0.2,0-0.3,0c-0.1,0-0.1-0.1-0.2-0.2c0-0.1,0-0.2-0.1-0.4c0-0.2,0-0.4-0.1-0.6
	c0-0.2-0.1-0.4-0.1-0.7c0-0.2-0.1-0.4-0.2-0.6c0-0.1,0-0.2,0-0.4c0-0.1,0.1-0.2,0.1-0.3v-5.4c0-0.1,0-0.1,0-0.2s0-0.2,0-0.2v-4.4
	c-0.4,0.5-0.8,1-1.2,1.7c-0.4,0.7-0.9,1.3-1.3,2c-0.1,0.2-0.3,0.5-0.5,0.8c-0.2,0.3-0.4,0.6-0.5,0.9c-0.2,0.3-0.4,0.7-0.6,1
	c-0.2,0.3-0.4,0.7-0.6,0.9c-0.1,0.1-0.1,0.1-0.2,0.2c-0.1,0-0.2,0.1-0.4,0.2c-0.1,0-0.1-0.1-0.3-0.1c-0.1,0-0.2,0-0.3-0.1
	c-0.2-0.2-0.4-0.4-0.5-0.6c-0.2-0.3-0.3-0.5-0.5-0.8c-0.2-0.3-0.3-0.6-0.5-0.9c-0.2-0.3-0.3-0.6-0.4-0.9c-0.3-0.4-0.5-0.8-0.7-1.1
	c-0.2-0.3-0.3-0.5-0.5-0.7c-0.1-0.2-0.3-0.4-0.4-0.6c-0.1-0.2-0.3-0.4-0.5-0.7c-0.1-0.2-0.3-0.4-0.3-0.7c-0.1-0.2-0.2-0.5-0.4-0.7
	V14c0,0.1,0,0.2,0.1,0.5c0,0.2,0.1,0.5,0.1,0.7l0,6.3c0,0.2-0.1,0.5-0.1,0.8c0,0.3-0.1,0.6-0.1,0.9c0,0.3-0.1,0.5-0.1,0.7
	c0,0.2,0,0.3,0,0.4v2.3c0,0.1,0,0.1,0,0.1c0,0,0,0,0.1,0.1c0,0.1,0,0.3,0,0.5c0,0.2-0.1,0.4-0.1,0.6c0,0.1-0.1,0.1-0.2,0.1
	c-0.1,0-0.2,0-0.3-0.1c-0.1-0.1-0.1-0.2-0.2-0.2c-0.1-0.1-0.1-0.2-0.1-0.3c0-0.1,0-0.2,0-0.2l0.3-2c-0.1-0.2-0.1-0.3-0.2-0.5
	s-0.2-0.3-0.4-0.4c-0.2,0.1-0.3,0.2-0.3,0.4c0,0.2-0.1,0.3-0.1,0.5c0,0.2,0,0.3,0,0.5c0,0.2-0.1,0.3-0.2,0.4c-0.1,0-0.1,0-0.2,0
	c-0.1,0-0.1-0.1-0.2-0.1c-0.2-0.2-0.3-0.4-0.4-0.8c-0.1-0.3-0.1-0.6-0.2-0.8c-0.1-0.3-0.3-0.6-0.6-0.7c-0.3-0.1-0.5-0.2-0.7-0.2
	c0-0.1,0-0.1-0.1-0.2c-0.1-0.1-0.1-0.1-0.1-0.2v-15l0.1-1.4V4.8c0-0.1,0-0.1,0-0.2c0-0.1-0.1-0.2-0.1-0.2c0-0.1,0-0.2,0-0.2
	c0-0.1,0.1-0.2,0.2-0.2c0.1,0,0.3-0.1,0.5-0.1c0.2,0,0.3,0,0.4,0c0.1,0,0.2,0,0.3,0c0.1,0,0.2,0,0.3,0v0.7h0.6V5h-0.6v0.4h0.6v0.5
	h-0.6v0.3h0.6v0.4h-0.6V7l0.1,0.1l0.1,0c0,0,0.1,0,0.2,0c0.1,0,0.2,0,0.3,0v0.5h-0.6v0.4h0.6v0.4h-0.6v0.4h0.6v0.4h-0.6v0.4h0.6v0.4
	h-0.6v0.4h0.6c0,0.1,0,0.1,0,0.2c0,0.1,0,0.2,0.1,0.2h0.8l0.1,0v-0.3c-0.1-0.1-0.2-0.1-0.4-0.1c-0.1,0-0.2,0-0.3,0V9.9h0.7V9.5
	l-0.1-0.1l-0.1,0.1l-0.5-0.1V9c0.2,0.1,0.4,0.1,0.7,0V8.7h-0.7V8.3h0.6l0.1,0V7.9c-0.1-0.1-0.2-0.1-0.4-0.1c-0.1,0-0.2,0-0.3,0V7.5
	c0.1-0.1,0.3-0.1,0.6,0l0.1-0.1V7h-0.7V6.6c0.2,0.1,0.4,0.1,0.7,0V6.2h-0.7V5.8c0.1,0,0.2,0,0.3,0c0.2,0,0.3,0,0.3-0.1V5.5
	c-0.1-0.1-0.2-0.1-0.4-0.1c-0.1,0-0.2,0-0.3,0V5h0.7V4.7l-0.1-0.1l-0.1,0.1l-0.5-0.1V4.2c0,0,0.1,0,0.1,0c0.1,0,0.2,0,0.2,0
	c0.1,0,0.1,0,0.2,0c0.1,0,0.1-0.1,0.1-0.2h1.6c0.3,0.3,0.6,0.6,0.9,1.1c0.3,0.5,0.6,0.9,0.7,1.3c0,0.1,0.1,0.2,0.2,0.3
	c0.1,0.1,0.2,0.2,0.2,0.3c0.1,0.2,0.2,0.4,0.3,0.7c0.1,0.3,0.2,0.5,0.4,0.8c0.3,0.6,0.7,1.1,1.1,1.7c0.4,0.6,0.8,1.1,1.2,1.6
	c0.3-0.2,0.5-0.5,0.6-0.8c0.1-0.3,0.2-0.6,0.4-0.8c0.1-0.1,0.2-0.3,0.2-0.5c0.1-0.2,0.2-0.4,0.3-0.5c0.2-0.3,0.4-0.6,0.7-0.9
	c0.3-0.4,0.5-0.7,0.7-1c0.4-0.5,0.7-1.1,1-1.6c0.3-0.5,0.7-1.1,1.1-1.7h4.5c0,0.1,0.1,0.3,0.1,0.5c0,0.2,0.1,0.4,0.1,0.6
	c0,2.4,0,4.5,0,6.2s0,3.2,0,4.3c0,1.2,0,2.1,0,2.8c0,0.7,0,1.2,0,1.6c0,0.4,0,0.6,0,0.7s0,0.2,0,0.2c0,0.1,0,0.2,0,0.5
	c0,0.3,0,0.5,0,0.7c0,0.2,0.1,0.4,0.1,0.7C145.3,23,145.3,23.1,145.3,23.2z M128.9,13.7c0-0.1,0-0.2-0.1-0.5c0-0.2-0.1-0.5-0.1-0.6
	c0-0.1,0-0.2-0.1-0.3c0-0.1,0-0.2-0.1-0.2c-0.1-0.1-0.2-0.2-0.3-0.2c-0.1,0-0.2,0-0.3,0c-0.1,0-0.3,0-0.4,0c-0.1,0-0.2,0.1-0.3,0.2
	c-0.1,0.1-0.1,0.2-0.1,0.4c0,0.2-0.1,0.4-0.1,0.5s0,0.4-0.1,0.5c0,0.2,0,0.2,0,0.3c0,0.1,0.1,0.3,0.2,0.4c0.1,0.1,0.2,0.2,0.2,0.2h1
	c0-0.1,0.1-0.1,0.1-0.2c0,0,0.1-0.1,0.1-0.1c0,0,0.1-0.1,0.1-0.1S128.9,13.8,128.9,13.7z M128.7,11.1c0-0.2-0.1-0.3-0.3-0.3
	c-0.2,0-0.4,0-0.4,0c-0.1,0-0.3,0-0.4,0c-0.2,0-0.3,0.1-0.3,0.3c0,0.1,0,0.1,0.1,0.2c0.1,0.1,0.1,0.1,0.1,0.1h1
	C128.6,11.3,128.7,11.2,128.7,11.1z M128.4,12.6c0,0.3-0.1,0.5-0.4,0.5c-0.2,0-0.3-0.1-0.4-0.2c0-0.1-0.1-0.2-0.1-0.3
	c0-0.1,0-0.2,0.1-0.3c0.1-0.1,0.2-0.2,0.3-0.2c0.1,0,0.3,0.1,0.3,0.2C128.4,12.4,128.4,12.5,128.4,12.6z"/>
<path class="st0" d="M166.7,14c0,0.5,0,1-0.1,1.4c-0.1,0.4-0.1,0.8-0.3,1.2c-0.1,0.4-0.3,0.8-0.5,1.2c-0.2,0.4-0.4,0.9-0.7,1.4
	c0,0.1-0.1,0.2-0.2,0.3c-0.1,0.1-0.2,0.3-0.4,0.5c-0.1,0.2-0.3,0.4-0.4,0.5c-0.2,0.2-0.3,0.4-0.4,0.5c-0.1,0.1-0.2,0.2-0.3,0.4
	c-0.1,0.2-0.2,0.3-0.3,0.4c-0.1,0.1-0.2,0.2-0.4,0.4c-0.2,0.1-0.3,0.2-0.4,0.3c-0.1,0.1-0.3,0.2-0.4,0.4c-0.1,0.2-0.3,0.3-0.4,0.4
	c-0.1,0-0.1,0.1-0.3,0.1c-0.1,0-0.2,0.1-0.3,0.2c-0.1,0.2-0.2,0.4-0.3,0.7c0,0.3-0.1,0.5-0.1,0.8l0.2,1.9c0,0.1,0,0.3-0.1,0.6
	c-0.1,0.2-0.2,0.4-0.4,0.4c-0.2,0-0.3-0.1-0.4-0.3c-0.1-0.2-0.1-0.4-0.1-0.5c0-0.2,0.1-0.5,0.2-1s0.2-1,0.2-1.6c0-0.3,0-0.5-0.1-0.6
	c0-0.1-0.1-0.2-0.2-0.3c-0.1-0.1-0.2-0.1-0.3-0.1c-0.1,0-0.3,0-0.5,0c-0.1,0-0.3,0-0.3,0.1c-0.1,0.1-0.2,0.2-0.3,0.4
	c0,0.1-0.1,0.2-0.3,0.2s-0.3,0.2-0.4,0.3c-0.1,0.2-0.1,0.3-0.1,0.5c0,0.1,0,0.3,0,0.4c0,0.1,0,0.3,0,0.4c0,0.1-0.1,0.3-0.2,0.4
	c0,0-0.1,0-0.2,0c-0.1,0-0.2-0.1-0.2-0.1c-0.2-0.2-0.3-0.4-0.4-0.8c-0.1-0.3-0.1-0.6-0.2-0.8c-0.1-0.2-0.2-0.4-0.5-0.6
	c-0.3-0.2-0.5-0.3-0.6-0.3c-0.1,0-0.3,0.1-0.5,0.2c-0.2,0.1-0.3,0.3-0.4,0.5c0,0.1-0.1,0.2-0.1,0.4c0,0.2,0,0.3,0,0.3l0.2,2.6
	c0,0.3,0,0.5-0.1,0.7c-0.1,0.2-0.2,0.3-0.6,0.3c-0.2,0-0.3,0-0.4-0.1s-0.1-0.2-0.2-0.3s0-0.2,0-0.3c0-0.1,0-0.2,0-0.3l0.3-3
	c0-0.1,0-0.2-0.1-0.4c0-0.2-0.1-0.4-0.2-0.5c-0.1-0.2-0.2-0.3-0.3-0.5c-0.1-0.1-0.3-0.2-0.4-0.2c-0.1,0-0.3,0.1-0.5,0.2
	c-0.2,0.2-0.3,0.3-0.4,0.5c0,0.2-0.1,0.3-0.1,0.5c0,0.2-0.1,0.4-0.2,0.5c0,0.1-0.1,0.1-0.1,0.1c-0.1,0-0.1,0-0.2,0
	c-0.1,0-0.2,0-0.3,0c-0.1,0-0.2-0.1-0.2-0.2c0-0.4-0.1-0.7-0.1-1.1c0-0.4,0-0.8-0.1-1.2c0-0.3-0.2-0.5-0.4-0.7
	c-0.3-0.2-0.5-0.3-0.7-0.4c-0.2-0.1-0.3-0.2-0.5-0.5c-0.2-0.2-0.3-0.4-0.4-0.5c-0.2-0.2-0.4-0.5-0.6-0.7c-0.2-0.2-0.4-0.5-0.5-0.7
	c-0.1-0.3-0.3-0.6-0.4-1c-0.2-0.4-0.3-0.7-0.4-1.1c-0.1-0.3-0.2-0.6-0.3-0.9c-0.1-0.3-0.1-0.4-0.1-0.4V12c0-0.1,0-0.2,0.1-0.5
	c0.1-0.3,0.2-0.5,0.2-0.7c0.3-0.7,0.5-1.4,0.8-1.9c0.3-0.5,0.6-1.1,1.1-1.7c0.4-0.6,0.9-1.1,1.5-1.5c0.6-0.4,1.1-0.8,1.5-1
	c0.3-0.1,0.6-0.3,1-0.4c0.4-0.1,0.7-0.2,1.1-0.3c0.5-0.1,1-0.3,1.5-0.3c0.5-0.1,1-0.1,1.6-0.1c0.7,0,1.4,0.1,2.1,0.2
	c0.8,0.1,1.5,0.4,2.3,0.7c0.8,0.3,1.5,0.8,2.2,1.3c0.7,0.6,1.4,1.2,2,2.1c0.3,0.4,0.5,0.7,0.6,1.1c0.1,0.4,0.3,0.7,0.4,1.1
	c0.1,0.2,0.2,0.5,0.3,0.8c0.1,0.4,0.2,0.7,0.3,1c0,0.2,0,0.4,0.1,0.6c0,0.2,0,0.4,0,0.6c0,0.2,0,0.4,0,0.5
	C166.7,13.9,166.7,14,166.7,14z M163.9,14.2c0-0.4,0-0.9-0.1-1.3c-0.1-0.4-0.1-0.8-0.2-1.1c-0.1,0.6-0.3,1.2-0.8,1.9
	c-0.5,0.7-1,1.3-1.7,1.8v0.2c0,0.2,0,0.4,0.1,0.5c0.1,0.1,0.1,0.2,0.1,0.4c0,0.1-0.1,0.2-0.2,0.3c-0.1,0.1-0.4,0.2-0.8,0.4l-0.1-0.1
	l-0.2-1.3c-0.1,0.1-0.4,0.1-0.6,0.2c-0.3,0.1-0.6,0.1-0.9,0.2c-0.3,0.1-0.6,0.1-0.9,0.2c-0.3,0-0.5,0.1-0.7,0.1h-1.2v1.1h-0.5
	c-0.1,0-0.3,0-0.6,0c-0.2,0-0.4,0-0.5-0.1c0-0.2,0-0.4,0-0.5c0-0.2,0-0.3,0-0.5c-0.5,0-0.9,0-1.3-0.1c-0.4,0-0.8-0.2-1.3-0.4
	c-0.1,0.1-0.2,0.2-0.3,0.4c-0.1,0.1-0.2,0.2-0.2,0.2c-0.1,0-0.2,0-0.4-0.1c-0.2-0.1-0.3-0.2-0.4-0.3l0.6-0.7
	c-0.2-0.1-0.5-0.3-0.7-0.5c-0.3-0.2-0.5-0.5-0.7-0.7c-0.2-0.3-0.4-0.5-0.6-0.8c-0.2-0.3-0.3-0.5-0.3-0.7c0,0.1-0.1,0.3-0.1,0.5
	c0,0.2,0,0.3,0,0.4c0,0.5,0.1,1.1,0.3,1.7c0.2,0.6,0.4,1.1,0.6,1.4c0.2,0.3,0.4,0.6,0.6,0.9c0.3,0.3,0.5,0.6,0.8,0.8
	c0.3,0.3,0.6,0.5,0.9,0.7c0.3,0.2,0.6,0.4,0.9,0.5c0.1-0.2,0.2-0.3,0.2-0.5c0.1-0.2,0.2-0.3,0.3-0.5c0.3,0.1,0.6,0.3,0.9,0.4
	c0,0.1,0,0.3,0,0.5c0,0.2,0,0.3,0,0.5h3.7v-0.4c0-0.1,0-0.1,0-0.2c0-0.1,0-0.2,0-0.2c0.3-0.1,0.5-0.2,0.8-0.3
	c0.2-0.1,0.5-0.1,0.7-0.2c0.1,0.2,0.2,0.4,0.3,0.6c0.1,0.2,0.2,0.4,0.3,0.6h0.2c0.2-0.1,0.5-0.2,0.8-0.4c0.3-0.1,0.5-0.3,0.8-0.5
	c0.3-0.2,0.5-0.4,0.7-0.6c0.2-0.2,0.4-0.4,0.5-0.7c-0.1-0.1-0.2-0.1-0.2-0.2c-0.1-0.1-0.2-0.1-0.2-0.2c0.2-0.2,0.3-0.4,0.4-0.6
	c0.1-0.2,0.2-0.3,0.4-0.3c0.1,0,0.1,0,0.3,0c0.1,0,0.2,0,0.3,0.1c0.1-0.1,0.1-0.3,0.2-0.5c0.1-0.2,0.1-0.4,0.1-0.6
	c0-0.2,0.1-0.4,0.1-0.7C163.9,14.5,163.9,14.3,163.9,14.2z M154.6,11.6c-0.1-0.2-0.2-0.5-0.4-0.9c-0.2-0.3-0.4-0.7-0.5-1
	c-0.2-0.3-0.4-0.7-0.6-1c-0.2-0.3-0.4-0.5-0.5-0.7c-0.2,0.1-0.4,0.4-0.7,0.7c-0.2,0.3-0.5,0.7-0.7,1.1c-0.2,0.4-0.4,0.8-0.5,1.2
	c-0.1,0.4-0.2,0.7-0.2,0.9c0,0.1,0,0.1,0,0.1c0,0,0,0,0,0l1.8,0.1c0.2,0,0.4,0,0.7,0c0.2,0,0.5-0.1,0.7-0.1c0.2,0,0.4-0.1,0.6-0.2
	C154.4,11.7,154.5,11.6,154.6,11.6z M157.5,14.8c-0.1-0.2-0.2-0.4-0.3-0.7c-0.1-0.2-0.2-0.5-0.4-0.7c-0.1-0.2-0.2-0.4-0.4-0.6
	c-0.1-0.2-0.2-0.4-0.3-0.5c-0.2,0.4-0.3,0.8-0.6,1.2c-0.2,0.4-0.4,0.8-0.6,1.3L157.5,14.8z M161.8,11.1c-0.1-0.2-0.2-0.5-0.3-0.8
	c-0.1-0.3-0.3-0.6-0.4-1c-0.2-0.3-0.4-0.7-0.6-1c-0.2-0.3-0.5-0.6-0.8-0.9c0,0-0.1,0-0.1-0.1c0,0-0.1,0-0.1,0
	c-0.1,0.3-0.2,0.5-0.4,0.8c-0.1,0.3-0.3,0.6-0.4,0.9c-0.1,0.3-0.3,0.6-0.4,1c-0.1,0.3-0.2,0.6-0.3,0.9c-0.1,0-0.1,0.1-0.1,0.2v0.2
	h2.3c0,0,0.1,0,0.3,0c0.1,0,0.3,0,0.5-0.1c0.2,0,0.4-0.1,0.5-0.1C161.5,11.1,161.7,11.1,161.8,11.1z"/>
<path d="M185,9c0,0,0,0.1,0,0.2s0,0.2,0,0.4c0,0.2,0,0.3-0.1,0.5c0,0.2,0,0.3-0.1,0.5l0.1,3.7l-0.2,8.7c0,0.1-0.1,0.3-0.2,0.4
	c-0.1,0.1-0.2,0.3-0.4,0.4c-0.1,0.1-0.3,0.3-0.4,0.4c-0.1,0.1-0.2,0.3-0.2,0.4c0,0.1,0,0.2,0,0.3c0,0.1,0,0.2,0,0.4
	c0,0.1,0,0.3-0.1,0.4c0,0.1-0.1,0.2-0.2,0.3c-0.3,0-0.5-0.2-0.6-0.4c-0.1-0.2-0.2-0.5-0.2-0.7c0-0.3-0.1-0.5-0.2-0.7
	c-0.1-0.2-0.3-0.3-0.7-0.4c-0.1-0.1-0.3-0.3-0.5-0.4c-0.2-0.2-0.4-0.3-0.6-0.5c-1.4-1.9-2.9-3.8-4.3-5.7c-1.4-1.9-2.8-3.9-4.3-5.8
	l0,11.4c0,0.1-0.1,0.2-0.1,0.3c0,0.1,0,0.2-0.1,0.3c-0.1,0-0.1,0.1-0.2,0.1c-0.1,0-0.2,0.1-0.2,0.1c-0.1,0.1-0.1,0.2-0.2,0.4
	c-0.1,0.1-0.2,0.3-0.2,0.3v2.3c0,0.1,0,0.1,0,0.1c0,0,0,0,0.1,0.1c0,0.1,0,0.3,0,0.5c0,0.2-0.1,0.4-0.1,0.6c0,0.1-0.1,0.1-0.2,0.1
	c-0.2,0-0.4-0.1-0.5-0.3c-0.1-0.2-0.1-0.4-0.1-0.5l0.3-2c-0.1-0.2-0.1-0.3-0.2-0.5c-0.1-0.2-0.2-0.3-0.4-0.4
	c-0.2,0.1-0.3,0.3-0.3,0.4c0,0.2-0.1,0.3-0.1,0.5c0,0.2,0,0.3,0,0.5c0,0.2-0.1,0.3-0.2,0.4c-0.1,0-0.1,0-0.3-0.1
	c-0.1,0-0.2-0.1-0.3-0.2c-0.1-0.2-0.2-0.3-0.3-0.5c0-0.2-0.1-0.4-0.1-0.5c0-0.2-0.1-0.4-0.2-0.5c-0.1-0.2-0.2-0.3-0.4-0.5
	c0,0-0.1-0.1-0.2-0.2c-0.1-0.1-0.1-0.2-0.1-0.3c0-3.9,0-7.3,0.1-10.2c0-2.9,0.1-5.2,0.1-7l0.1-0.6V4.1c0-0.1,0-0.2,0.1-0.2
	c0.1,0,0.2-0.1,0.3-0.1c0.1,0,0.2,0,0.3,0c0.1,0,0.2,0,0.2,0c0,0,0.1,0,0.2,0c0.1,0,0.3,0,0.5,0c0.2,0,0.5,0,0.9,0s0.8,0,1.4,0
	c0.1,0,0.2,0.1,0.4,0.3c0.1,0.2,0.2,0.3,0.3,0.4c0.4,0.5,0.8,1,1.2,1.5c0.4,0.5,0.8,1,1.2,1.6c0.3,0.4,0.6,0.8,1,1.3
	c0.4,0.5,0.7,1,1.1,1.5c0.4,0.5,0.8,1,1.1,1.5c0.4,0.5,0.7,1,1,1.4c0.2,0.3,0.5,0.6,0.7,1.1c0.3,0.4,0.6,0.8,0.9,1.3
	c0-0.1,0-0.1,0-0.2c0-0.1,0-0.1,0-0.2c0-0.1,0-0.2,0-0.3c0-0.1-0.1-0.1-0.2-0.3l0.2-2.6c0-0.2,0-0.3-0.1-0.4c0-0.1-0.1-0.2-0.2-0.3
	c-0.1-0.1-0.2-0.2-0.3-0.4c-0.1-0.1-0.3-0.3-0.4-0.6c0.1-0.1,0.2-0.2,0.3-0.3c0.1-0.1,0.2-0.2,0.4-0.4c0,0,0,0,0.1,0
	c0,0,0.1,0,0.2,0V8.3l0.4-3.2c0-0.1,0-0.1,0-0.1c0,0,0,0,0.1-0.1c0-0.2,0-0.3,0-0.5c0-0.2,0.1-0.4,0.1-0.6c0.1-0.2,0.1-0.4,0.2-0.6
	c0.1-0.2,0.1-0.4,0.2-0.5c0.1,0.4,0.3,0.9,0.5,1.3c0.2,0.4,0.3,0.9,0.5,1.4c0.2-0.1,0.3-0.2,0.3-0.5c0-0.2,0.1-0.4,0.2-0.6
	c0,0,0,0.1,0,0.1c0,0,0,0.1,0.1,0.1c0.1,0,0.1,0,0.1-0.1c0.1-0.3,0.3-0.7,0.4-1c0.1-0.3,0.2-0.6,0.3-1c0,0,0-0.1,0.1-0.1
	c0,0,0.1-0.1,0.1-0.1c0,0,0,0.1,0,0.1c0,0,0,0.1,0,0.1c0,0.1,0,0.2,0,0.4c0,0.2,0.1,0.3,0.1,0.5c0,0.3,0.1,0.5,0.1,0.8
	c0,0.3,0.1,0.5,0.1,0.8c0,0,0,0.1,0,0.2c0,0.1,0,0.1-0.1,0.2l0.1,0.1c0.1-0.1,0.2-0.2,0.2-0.4c0,0.1,0,0.2,0,0.3
	c0,0.1,0,0.2,0.1,0.3c0.1-0.1,0.2-0.2,0.3-0.4c0.1-0.2,0.2-0.3,0.2-0.5L185,9z"/>
<path d="M203.8,13.3l-0.1,0.7c-0.1,0.3-0.1,0.6-0.2,1c-0.1,0.3-0.1,0.7-0.2,1c0,0.1-0.1,0.3-0.2,0.5c-0.1,0.2-0.2,0.4-0.2,0.5
	c-0.1,0.3-0.3,0.6-0.4,0.9c-0.1,0.3-0.3,0.7-0.5,1c-0.2,0.3-0.4,0.6-0.7,1c-0.3,0.3-0.5,0.6-0.9,0.8c-0.1,0.1-0.3,0.2-0.5,0.4
	c-0.2,0.1-0.4,0.3-0.6,0.4c-0.1,0.1-0.2,0.2-0.2,0.4c-0.1,0.2-0.1,0.3-0.1,0.5c0,0-0.1,0.1-0.1,0.1c0,0,0,0.1,0,0.1v0.4
	c0,0.1,0,0.1,0,0.2c0,0.1,0,0.1,0,0.1c0,0,0,0-0.1,0.1c0,0-0.1,0.1-0.1,0.1v0.6c-0.1,0.1-0.2,0.1-0.3,0.1c-0.2,0-0.3-0.1-0.4-0.2
	c-0.1-0.2-0.1-0.3-0.1-0.3v-0.4c0-0.2-0.1-0.4-0.3-0.6c-0.2-0.2-0.4-0.3-0.6-0.3s-0.4,0.1-0.5,0.2c-0.1,0.1-0.2,0.3-0.3,0.5
	c-0.1,0.2-0.1,0.3-0.1,0.5c0,0.2,0,0.3,0,0.3l0.3,2.8c0,0.1,0,0.1,0,0.2c0,0.1,0,0.2-0.1,0.3c0,0.1-0.1,0.2-0.2,0.3
	c-0.1,0.1-0.2,0.1-0.3,0.1c-0.1,0-0.3,0-0.4-0.1c-0.1-0.1-0.2-0.2-0.2-0.3c0-0.1-0.1-0.2-0.1-0.3c0-0.1,0-0.2,0-0.2l0.2-2.6
	c0-0.1,0-0.2-0.1-0.4c0-0.1-0.1-0.3-0.2-0.4c-0.1-0.1-0.2-0.2-0.3-0.3c-0.1-0.1-0.2-0.1-0.4-0.1c-0.2,0-0.3,0.1-0.5,0.2
	c-0.2,0.1-0.3,0.2-0.4,0.4c-0.1,0.1-0.2,0.3-0.2,0.5c0,0.2-0.1,0.4-0.1,0.6c-0.1,0.2-0.1,0.4-0.2,0.5c-0.1,0.1-0.2,0.2-0.4,0.2
	c-0.1,0-0.2,0-0.2-0.1c0-0.1-0.1-0.2-0.1-0.4l-0.1-0.7c0-0.2-0.1-0.3-0.2-0.5c-0.2-0.1-0.3-0.2-0.4-0.3c0,0-0.1-0.1-0.1-0.2
	c0-0.1-0.1-0.2-0.1-0.2c-0.1-0.1-0.2-0.2-0.2-0.2c-0.1,0-0.1,0-0.2,0l-0.8,0.1c-0.1,0-0.2,0.1-0.3,0.2V24l0.3,1.4
	c0,0.4-0.2,0.6-0.4,0.6c-0.1,0-0.2,0-0.2-0.1c-0.1-0.1-0.1-0.1-0.1-0.2v-0.8l0.1-0.5l0.1-0.8c0-0.1-0.1-0.3-0.1-0.5
	c0-0.2-0.1-0.4-0.3-0.6l-1.9,0.1c-0.1,0.3-0.1,0.6-0.1,1c0,0.4,0,0.8,0.1,1.2c0,0.4,0.1,0.8,0.1,1.2c0,0.4,0.1,0.8,0.1,1.2
	c0,0.1,0,0.2,0,0.4c0,0.2-0.1,0.3-0.3,0.3c-0.1,0-0.2-0.1-0.3-0.2c-0.1-0.1-0.2-0.2-0.2-0.4v-4.3c0-0.1-0.1-0.3-0.2-0.4
	c-0.2-0.1-0.3-0.2-0.4-0.3v-1.8c0.1-0.1,0.1-0.1,0.1-0.2c0-0.1,0.1-0.2,0.1-0.3c0-0.4,0-0.9-0.1-1.3c0-0.4-0.1-0.9-0.1-1.3
	c0-1.4,0-2.9,0-4.6c0-1.6,0-3.5-0.1-5.5l0.2-1.1V3.3c1.4,0,2.4,0,3.2,0c0.8,0,1.3,0,1.7,0c0.4,0,0.7,0,0.8,0c0.1,0,0.3,0,0.4,0
	c0.1,0,0.3,0,0.5,0c0.2,0,0.6,0,1.1,0l2.7,0.4c0.3,0.1,0.6,0.2,0.9,0.3c0.3,0.1,0.6,0.2,0.8,0.3c0.5,0.2,0.9,0.5,1.5,0.8
	c0.5,0.3,1,0.7,1.5,1.2c0.5,0.4,0.9,0.9,1.2,1.4c0.4,0.5,0.6,1,0.7,1.5c0.1,0.2,0.1,0.4,0.2,0.6c0.1,0.2,0.1,0.4,0.2,0.7
	c0,0.2,0,0.4,0.1,0.6c0,0.2,0.1,0.4,0.1,0.7L203.8,13.3z M199.1,12.5l-0.1-0.9c0-0.3-0.1-0.7-0.3-1.1c-0.2-0.4-0.4-0.7-0.6-1
	c0,0-0.1-0.1-0.1-0.2c0-0.1-0.1-0.1-0.1-0.2c-0.2-0.2-0.4-0.3-0.6-0.5c-0.2-0.2-0.4-0.4-0.7-0.5c-0.2-0.2-0.5-0.3-0.7-0.4
	c-0.2-0.1-0.4-0.2-0.6-0.2l-1.9-0.3c-0.8,0-1.3,0-1.7,0c-0.3,0-0.6,0-0.7,0c-0.1,0-0.2,0-0.2,0c0,0-0.1,0-0.3,0c0,0.6,0,1.1,0,1.7
	c0,0.5,0,1.1,0,1.8c0,0.7,0,1.4,0,2.4c0,0.9,0,2.1,0,3.5c0,0,0,0.2,0,0.4s0,0.4,0,0.7c0,0.2,0,0.5,0,0.7c0,0.2,0,0.3,0,0.3l2.8,0
	c0.2,0,0.5-0.1,0.7-0.1c0.3,0,0.6-0.1,1-0.1l0.8-0.1c0.1,0,0.2-0.1,0.3-0.1c0.1,0,0.2-0.1,0.2-0.1c0.2-0.1,0.4-0.3,0.7-0.5
	c0.3-0.2,0.5-0.4,0.7-0.6c0.2-0.2,0.4-0.5,0.6-0.7c0.2-0.3,0.3-0.6,0.3-0.9L199.1,12.5z"/>
<path d="M226.8,19.2l-0.2,1.1v0.4l0.2,0.8v1c0,0.1,0,0.1-0.1,0.2c-0.1,0-0.1,0.1-0.2,0.1c-0.1,0-0.1,0-0.2,0.1c-0.1,0-0.1,0-0.1,0.1
	c-0.1,0-0.1,0.1-0.2,0.2c-0.1,0.1-0.2,0.1-0.2,0.1h-1c-0.1,0-0.2,0-0.4-0.1c-0.2-0.1-0.3-0.1-0.4-0.1c-0.1,0-0.1,0-0.3,0.1
	c-0.1,0-0.2,0.1-0.3,0.1h-0.6l-0.2,0.5v1.1c0,0.1,0,0.1,0.1,0.1c0,0,0.1,0,0.1,0.1v1.4c0,0.1,0.1,0.1,0.2,0.2v0.4
	c-0.1,0.1-0.2,0.2-0.4,0.2c-0.1,0-0.2,0-0.2-0.1c-0.1,0-0.1-0.1-0.1-0.2c0-0.1-0.1-0.1-0.1-0.2c-0.1-0.1-0.1-0.2-0.2-0.2v-0.6
	l0.2-0.5l-0.1-0.8l0.1-1.2c-0.1-0.1-0.2-0.1-0.2-0.1c-0.1,0-0.2,0.1-0.4,0.3c-0.2,0.2-0.4,0.3-0.6,0.4c-0.1,0-0.1,0.1-0.1,0.2
	c0,0.1-0.1,0.2-0.1,0.2h-0.2l-1.1-0.2c-0.2,0-0.4,0.1-0.5,0.2c-0.1,0.1-0.1,0.2-0.1,0.3l-0.1,0.8c-0.1,0.1-0.2,0.1-0.4-0.1l-0.1-1
	c-0.1-0.4-0.1-0.6-0.2-0.8c-0.1-0.2-0.3-0.2-0.5-0.2c-0.2,0-0.4,0-0.5,0.1c-0.1,0.1-0.2,0.2-0.2,0.3s-0.1,0.2-0.2,0.3
	c-0.1,0.1-0.1,0.2-0.3,0.3c0,0-0.1,0-0.1,0c-0.1,0-0.1,0-0.1,0.1c-0.1,0.1-0.2,0.4-0.3,0.7c-0.1,0.3-0.1,0.5-0.1,0.7l-0.1,1.3
	l0.2,1.1c0,0.1,0,0.2-0.1,0.4c-0.1,0.2-0.2,0.3-0.3,0.3c-0.2,0-0.3-0.1-0.4-0.3c-0.1-0.2-0.1-0.3-0.1-0.4l0.1-1.9
	c0-0.1,0.1-0.2,0.1-0.3s0-0.2,0-0.3c0,0,0-0.1-0.1-0.1c0,0,0-0.1,0-0.1v-0.9c0-0.2-0.1-0.3-0.2-0.5s-0.3-0.3-0.5-0.4
	c-0.2-0.1-0.4-0.2-0.5-0.2c-0.2-0.1-0.3-0.1-0.3-0.1c0,0-0.1-0.1-0.1-0.1c0,0,0-0.1-0.1-0.1c0,0-0.1-0.1-0.2-0.1
	c-0.1,0-0.2-0.1-0.2-0.2V5.8l0.2-1V4.1c0-0.1,0.1-0.1,0.2-0.2c0.1-0.1,0.2-0.1,0.2-0.1l3.7,0.1c0.1,0,0.1,0.1,0.2,0.1
	c0.1,0,0.1,0.1,0.2,0.2v7.1c0,0.1,0,0.2,0.1,0.3c0,0.1,0,0.3,0,0.4l-0.2,1.4l0.1,3.7l0.1,1c0,0.2,0.1,0.4,0.3,0.7c0.5,0,1,0,1.4,0
	c0.4,0,0.9,0,1.5,0c0.6,0,1.3,0,2.2,0s2,0,3.5-0.1c0.2,0,0.3,0.1,0.4,0.2C226.7,19.1,226.8,19.2,226.8,19.2z"/>
<path class="st0" d="M234.4,13.3c0,0.1,0,0.2,0,0.5c0,0.3,0,0.5,0,0.7c0,0.1,0,0.2-0.1,0.3c0,0.1-0.1,0.2-0.1,0.3v2c0,0,0,0.1,0,0.2
	c0,0.1,0,0.3-0.1,0.4c0,0.2,0,0.3-0.1,0.5c0,0.2-0.1,0.3-0.1,0.5c-0.1,0.5-0.2,1.1-0.4,1.7s-0.3,1.1-0.4,1.7c0,0.1-0.1,0.2-0.1,0.2
	c-0.1,0.1-0.1,0.2-0.1,0.3c0,0.1,0,0.3,0,0.5c0,0.2-0.1,0.4-0.2,0.6c0,0.1-0.1,0.1-0.2,0.1c-0.1,0-0.2,0-0.2,0
	c-0.1-0.1-0.2-0.2-0.2-0.3c0-0.1,0-0.2,0-0.4c0-0.1,0-0.2,0-0.4c0-0.1-0.1-0.2-0.3-0.3c-0.2,0.1-0.3,0.3-0.3,0.5
	c0,0.2-0.1,0.4-0.1,0.5c-0.1,0.2-0.1,0.5-0.1,0.7c0,0.3,0,0.5,0.1,0.7c0,0.1,0,0.3,0,0.5c0,0.2,0,0.3,0,0.5c0,0.1-0.1,0.2-0.1,0.3
	c-0.1,0.1-0.2,0.1-0.3,0.1c-0.1,0-0.3-0.1-0.4-0.2c-0.1-0.2-0.2-0.3-0.2-0.4c0-0.1,0-0.3,0.1-0.5c0-0.2,0.1-0.4,0.1-0.6
	c0,0,0-0.1,0-0.2c0-0.1,0-0.3-0.1-0.4c0-0.1-0.1-0.3-0.1-0.4c0-0.1-0.1-0.2-0.2-0.2c-0.1,0-0.1,0-0.1,0c0,0-0.1,0-0.1,0
	c-0.1,0-0.3-0.1-0.4-0.2c-0.1-0.2-0.2-0.5-0.2-0.8c0-0.3-0.1-0.6-0.1-0.8c-0.1-0.2-0.1-0.4-0.3-0.6c-0.1-0.3-0.2-0.5-0.3-0.8
	c-0.1-0.5-0.2-1-0.2-1.5c-0.1-0.5-0.1-1-0.2-1.5c0-0.1,0-0.2-0.1-0.4c0-0.2-0.1-0.3-0.1-0.5c0-0.2-0.1-0.3-0.1-0.5
	c0-0.1,0-0.2,0-0.3v-4.2c0-0.2,0-0.6,0.1-1.1c0.1-0.5,0.2-1,0.3-1.4c0-0.1,0.1-0.1,0.2-0.2c0.1,0,0.2-0.1,0.2-0.2
	c0.1-0.1,0.1-0.2,0.1-0.4c0-0.1,0-0.3,0.1-0.4l0-2.4l0.2-1c0,0,0-0.1,0-0.1s0-0.1-0.1-0.1c-0.1,0-0.2,0.1-0.2,0.2
	c-0.1,0.1-0.2,0.1-0.3,0.1c-0.1,0-0.2,0-0.2-0.1c0-0.1-0.1-0.1-0.1-0.2c0-0.1,0-0.2,0.1-0.4c0.1-0.1,0.2-0.3,0.4-0.4
	c0.1-0.1,0.3-0.3,0.4-0.4c0.1-0.1,0.2-0.2,0.3-0.2c0.1,0,0.3,0,0.5,0c0.2,0,0.4,0,0.4,0c0.1,0,0.2,0,0.4,0c0.2,0,0.4,0,0.5,0
	c0.3,0.1,0.6,0.3,0.8,0.7c0.2,0.3,0.4,0.6,0.6,0.9c0,0.1,0.1,0.2,0.1,0.4c0,0.2,0,0.3,0.1,0.4c0,0.1,0,0.1,0,0.2c0,0,0,0.1,0.1,0.2
	c0,0.2,0.1,0.4,0.1,0.6c0,0.2,0,0.4,0,0.4v1.8c0.1,0.1,0.2,0.2,0.3,0.4c0.1,0.1,0.2,0.3,0.3,0.5c0.1,0.2,0.2,0.4,0.2,0.7
	c0.1,0.6,0.2,1,0.3,1.3c0.1,0.3,0.1,0.5,0.1,0.7c0,0.2,0,0.4,0,0.5C234.4,12.8,234.4,13,234.4,13.3z M232.1,6.5c0,0,0-0.1,0-0.2
	c0-0.1-0.1-0.1-0.2-0.1c0,0-0.1,0-0.1,0c-0.1,0-0.1,0-0.2,0c-0.1,0-0.2,0-0.3-0.1c-0.1-0.1-0.2-0.2-0.2-0.3c0-0.2,0.1-0.3,0.2-0.4
	c0,0,0.1,0,0.2,0c0.1,0,0.2,0,0.2,0c0.1,0,0.2,0,0.2-0.1c0.1,0,0.1-0.1,0.1-0.2c0-0.1-0.1-0.2-0.3-0.3c-0.2-0.1-0.3-0.2-0.4-0.2
	c0,0-0.1,0-0.2,0c-0.1,0-0.1,0-0.2,0c-0.2,0-0.3,0-0.5,0.1c-0.2,0-0.3,0.2-0.5,0.4v0.3c0.2,0,0.4,0.1,0.5,0.2
	c0.1,0.1,0.2,0.2,0.2,0.4c0,0.1,0,0.2-0.1,0.3c-0.1,0.1-0.2,0.1-0.3,0.1c-0.1,0-0.1,0-0.2-0.1c-0.1-0.1-0.1-0.1-0.2-0.1
	c-0.1,0-0.1,0-0.1,0c0,0,0,0-0.1,0c0,0.1,0,0.1,0,0.1c0,0,0,0.1,0,0.1s0,0.2,0.1,0.4c0,0.2,0.1,0.4,0.1,0.5c0.1,0.1,0.3,0.3,0.5,0.6
	c0.2,0.3,0.4,0.4,0.6,0.4h0.2c0.1,0,0.1,0,0.2-0.1c0.1-0.1,0.1-0.2,0.2-0.2c0.1-0.1,0.2-0.1,0.2-0.2c0.1-0.1,0.2-0.1,0.2-0.2
	c0.1-0.2,0.2-0.4,0.2-0.6C232.1,6.7,232.1,6.6,232.1,6.5z M231.5,7.6c-0.1,0-0.3,0-0.5-0.1c-0.2-0.1-0.4,0-0.7,0.1c0,0,0,0,0-0.1
	c0,0,0-0.1,0-0.2c0.1,0,0.2-0.1,0.3-0.1c0.1,0,0.2,0,0.3,0c0.1,0,0.2,0,0.3,0c0.1,0,0.3,0.1,0.4,0.1V7.6z M231.2,6.9
	c0,0-0.1,0-0.1,0c0,0-0.1,0.1-0.2,0.1c-0.1-0.1-0.1-0.2-0.1-0.2c0.1,0.1,0.1,0.1,0.2,0.1C231,6.8,231.1,6.9,231.2,6.9z"/>
<path d="M254.2,17.5c0,0.3,0,0.5,0,0.5c0,0.1,0,0.2,0,0.2c0,0.1,0,0.2-0.1,0.3c0,0.2-0.1,0.4-0.1,0.9c0,0.2,0,0.4,0,0.7
	c0,0.3,0,0.5-0.1,0.8c0,0.1-0.1,0.2-0.2,0.3c-0.1,0.1-0.2,0.2-0.3,0.3c-0.1,0.1-0.2,0.2-0.3,0.3c-0.1,0.1-0.2,0.2-0.2,0.2
	c-0.3,0.3-0.6,0.5-1,0.7s-0.6,0.3-0.9,0.4c-0.3,0.1-0.6,0.2-0.9,0.4c-0.3,0.1-0.6,0.2-0.8,0.4c-0.1,0.1-0.2,0.1-0.2,0.3
	c0,0.1-0.1,0.2-0.1,0.3c0,0.2,0,0.5-0.1,0.8c0,0.3,0,0.5,0,0.6c0,0,0,0.2,0,0.4c0,0.2,0,0.5,0.1,0.7c0,0.3,0,0.5,0.1,0.7
	c0,0.2,0,0.4,0,0.4c0,0.1,0,0.3-0.1,0.5c-0.1,0.2-0.2,0.3-0.4,0.3c-0.1,0-0.2-0.1-0.3-0.2c-0.1-0.1-0.1-0.3,0-0.4l0.2-1.5
	c0-0.2,0-0.4,0-0.6c0-0.2,0-0.4-0.1-0.7c0-0.2-0.1-0.4-0.2-0.6c-0.1-0.2-0.2-0.4-0.3-0.5c0,0-0.1-0.1-0.2-0.1c-0.1,0-0.1,0-0.2-0.1
	c0,0-0.1-0.1-0.1-0.2c0-0.1-0.1-0.1-0.1-0.2c-0.2,0-0.5,0.1-0.7,0.1c-0.2,0-0.5,0-0.7,0c0,0.1-0.1,0.3-0.1,0.5c0,0.2,0,0.4,0,0.4
	v1.3c0,0.1-0.1,0.2-0.2,0.2c-0.1,0-0.1,0-0.2,0.1c-0.1,0-0.2-0.1-0.3-0.2c0-0.1,0-0.3,0-0.5c0-0.2,0.1-0.4,0.1-0.7
	c0-0.2,0-0.5,0-0.7c0-0.1,0-0.2-0.1-0.2c0-0.1-0.1-0.2-0.1-0.3c0-0.2-0.1-0.4-0.1-0.5c0-0.2-0.1-0.2-0.4-0.2c-0.2,0-0.4,0.1-0.4,0.2
	c-0.1,0.1-0.1,0.3-0.1,0.4c0,0.2,0,0.3-0.1,0.4c0,0.1-0.1,0.2-0.3,0.2h-0.2c-0.2,0-0.3-0.1-0.3-0.3c0-0.2-0.1-0.4-0.1-0.6
	c0-0.2-0.1-0.5-0.2-0.6c-0.1-0.2-0.3-0.3-0.6-0.3c-0.2,0-0.4,0.1-0.5,0.2c-0.1,0.1-0.2,0.3-0.2,0.5c0,0.2-0.1,0.4-0.1,0.5
	c0,0.2,0,0.3,0,0.4l0.2,2.8c0,0.1,0,0.3-0.1,0.5c-0.1,0.2-0.2,0.3-0.5,0.3c-0.2,0-0.3,0-0.4-0.1c-0.1-0.1-0.1-0.2-0.2-0.3
	c0-0.1,0-0.2,0-0.4c0-0.1,0-0.2,0-0.3l0.2-2.5c0-0.1,0-0.2,0-0.3c0-0.2-0.1-0.3-0.1-0.4c0,0-0.1-0.1-0.1-0.2
	c-0.1-0.1-0.1-0.1-0.1-0.2c0-0.1-0.1-0.2-0.1-0.3c0-0.1,0-0.2-0.1-0.3c-0.3-0.1-0.5-0.2-0.5-0.4c-0.1-0.2-0.2-0.3-0.3-0.4
	c-0.1-0.1-0.2-0.2-0.3-0.2c-0.1-0.1-0.2-0.1-0.3-0.2c-0.3-0.4-0.6-0.7-1-1.1c-0.3-0.4-0.6-0.8-0.9-1.2c-0.1-0.2-0.3-0.5-0.4-0.9
	c-0.1-0.4-0.3-0.8-0.4-1.3c-0.1-0.5-0.2-0.9-0.3-1.4c-0.1-0.4-0.1-0.8-0.1-1.1c0,0,0-0.2,0-0.4c0-0.2,0-0.5,0.1-0.8
	c0-0.3,0.1-0.6,0.1-1c0-0.3,0.1-0.6,0.1-0.8c0-0.2,0.1-0.4,0.2-0.6c0.1-0.2,0.2-0.4,0.3-0.6c0.1-0.3,0.2-0.6,0.4-0.9
	c0.2-0.3,0.4-0.7,0.6-1c0.2-0.2,0.4-0.5,0.7-0.9c0.3-0.4,0.6-0.7,0.8-0.9c0.6-0.6,1.3-1.1,1.9-1.4c0.6-0.3,1.3-0.6,1.8-0.9
	c0.2-0.1,0.4-0.2,0.7-0.2c0.3,0,0.5-0.1,0.8-0.1c0.3-0.1,0.5-0.1,0.6-0.1c0.1,0,0.3-0.1,0.4-0.1c0.1,0,0.2,0,0.3,0
	c0.1,0,0.3,0,0.5,0c0.1,0,0.3,0,0.7,0c0.4,0,0.7,0.1,1.1,0.1c0.4,0.1,0.8,0.2,1.2,0.3c0.4,0.1,0.9,0.3,1.3,0.4
	c0.1,0.1,0.4,0.2,0.7,0.3c0.4,0.2,0.7,0.4,1.1,0.6c0.4,0.2,0.7,0.4,1,0.7c0.3,0.2,0.4,0.4,0.4,0.6c0,0.2-0.1,0.4-0.2,0.5
	c-0.1,0.1-0.3,0.3-0.4,0.5c-0.1,0.1-0.3,0.3-0.4,0.5c-0.2,0.2-0.3,0.4-0.5,0.6c-0.1,0.2-0.3,0.4-0.5,0.6c-0.2,0.3-0.4,0.4-0.6,0.4
	c-0.1,0-0.3-0.1-0.4-0.2c-0.1-0.1-0.3-0.3-0.5-0.4c-0.3-0.1-0.6-0.3-1-0.5c-0.4-0.2-0.8-0.3-1.1-0.4c-0.2,0-0.4-0.1-0.7-0.1
	c-0.3,0-0.5-0.1-0.8-0.1s-0.5,0-0.7-0.1c-0.2,0-0.3,0-0.3,0c-0.5,0-1.1,0.1-1.6,0.4c-0.5,0.3-0.9,0.6-1.3,1c-0.4,0.4-0.7,0.8-1,1.2
	c-0.3,0.4-0.4,0.8-0.6,1.1c0,0.1-0.1,0.2-0.1,0.3c-0.1,0.1-0.1,0.2-0.1,0.3c-0.1,0.3-0.1,0.6-0.1,0.9c0,0.3,0,0.7,0,1v0.9
	c0,0.4,0.2,0.8,0.4,1.2c0.2,0.4,0.5,0.8,0.8,1.2c0.3,0.4,0.7,0.7,1.1,1c0.4,0.3,0.8,0.5,1.2,0.6c0.1,0,0.3,0.1,0.5,0.2
	c0.2,0.1,0.4,0.2,0.6,0.2c0.1,0,0.2,0,0.4,0c0.1,0,0.3,0,0.4,0s0.3,0,0.4,0c0.1,0,0.2,0,0.2,0c0.2,0,0.4,0,0.7,0
	c0.3,0,0.6,0,0.9-0.1c0.3,0,0.6-0.1,0.8-0.2c0.3-0.1,0.5-0.3,0.6-0.5c0.1-0.1,0.1-0.2,0.1-0.3s0-0.2,0-0.3c0-0.1,0-0.2-0.1-0.3
	c0-0.1-0.1-0.3-0.1-0.3v-1.3h-2c-0.1,0-0.2,0-0.5,0c-0.3,0-0.5,0-0.7-0.1c-0.1,0-0.1-0.1-0.2-0.1c-0.1-0.1-0.2-0.1-0.3-0.1v-3.7
	c0,0,0.1,0,0.1-0.1c0.1,0,0.1-0.1,0.2-0.1h0.8l1,0.1h2.8c0,0,0.1,0,0.4,0c0.2,0,0.4,0,0.7-0.1c0.2,0,0.5,0,0.7-0.1
	c0.2,0,0.3,0,0.4,0c0.2,0,0.3,0,0.6,0c0.2,0,0.4,0.1,0.7,0.2c0.1,0,0.1,0.1,0.2,0.3c0,0.1,0.1,0.3,0.1,0.4L254.2,17.5z"/>
<path d="M272,6.6V7c0,0.2,0,0.6,0,1c0,0.4,0,1.1,0,1.9v6.6c0,0.2,0,0.6-0.1,1.1c0,0.5,0,1-0.1,1.6c0,0.6,0,1.2-0.1,1.8
	c0,0.6,0,1.2-0.1,1.7c0,0.1,0,0.2-0.1,0.3c-0.1,0.1-0.2,0.2-0.2,0.2h-2.3c0,0-0.1,0-0.2,0c-0.1,0-0.3,0-0.4-0.1
	c-0.2,0-0.3-0.1-0.5-0.1c-0.2,0-0.3-0.1-0.4-0.1c0,0-0.1-0.1-0.1-0.2c0-0.1,0-0.2,0-0.2v-7.4h-1.3c-0.4,0.2-0.6,0.5-0.6,0.8v0.4
	c0,0.2-0.1,0.4-0.2,0.5c-0.1,0.1-0.3,0.2-0.4,0.2c0,0-0.1,0-0.1-0.1c-0.1,0-0.1-0.1-0.2-0.2v-0.7c0-0.1,0-0.1-0.1-0.2
	c-0.1-0.1-0.1-0.1-0.2-0.1c-0.1,0-0.1,0-0.2,0.1c-0.1,0.1-0.1,0.1-0.1,0.2c-0.2,0.5-0.3,0.9-0.4,1.3l0.1,0.9v1c0,0-0.1,0.1-0.2,0.2
	s-0.2,0.2-0.3,0.2c-0.1,0-0.2,0-0.2-0.1c-0.1-0.1-0.1-0.1-0.2-0.2c-0.1-0.1-0.1-0.2-0.1-0.2c0-0.1-0.1-0.1-0.1-0.2l0.1-0.7v-1
	c0-0.1,0-0.2-0.1-0.4c-0.1-0.2-0.2-0.3-0.3-0.3c-0.1,0-0.1,0-0.2,0c0,0-0.1,0-0.2,0c-0.2,0-0.3-0.1-0.4-0.4
	c-0.1-0.2-0.2-0.4-0.3-0.5c0,0,0,0-0.1-0.1c0,0-0.1,0-0.1,0c0,0-0.1-0.1-0.1-0.2c0-0.1,0-0.1-0.1-0.2H260V20l0.1,0.5v2.9h-1.3
	c-0.1,0.1-0.1,0.2-0.1,0.4v0.5l-0.1,0.7c0,0-0.1,0-0.1,0c0,0,0,0-0.1,0c-0.1,0-0.2-0.1-0.2-0.3V24c0-0.2-0.1-0.3-0.2-0.4
	c-0.1,0-0.3-0.1-0.4-0.1l-1.3,0.2l-0.3-0.8c0,0,0,0.1,0,0.1c0,0,0,0-0.1,0c-0.1,0-0.2-0.1-0.3-0.2c-0.1-0.1-0.1-0.2-0.1-0.3v-0.2
	l0.1-15.5l0.1-0.5V3.7h2.4l0.5-0.1h1.1c0.1,0,0.2,0,0.2,0.1c0.1,0.1,0.1,0.2,0.1,0.2v0.6L260.1,5v6.2l7.5-0.1c0,0-0.1-0.1-0.1-0.1
	c0,0,0,0,0-0.1c0-0.7,0-1.4,0-1.9c0-0.6,0-1.1,0-1.7c0-0.5,0-1.1,0-1.7c0-0.6,0-1.2,0-1.9c0,0,0.1,0,0.2-0.1c0.1,0,0.1-0.1,0.2-0.1
	c0.1,0,0.1,0,0.1,0.1c0,0,0.1,0.1,0.1,0.1h1.8l0.5-0.1h0.8c0.1,0,0.1,0,0.2,0.1c0.1,0,0.2,0.1,0.2,0.1c0.1,0.1,0.1,0.1,0.1,0.2
	c0,0.1,0.1,0.2,0.1,0.2L272,6.6z"/>
<path d="M293.7,13.7c-0.6,0.2-1,0.5-1.2,0.9c-0.2,0.3-0.3,0.8-0.3,1.4l0.2,1.9c0,0.1,0,0.3-0.1,0.6c-0.1,0.2-0.2,0.4-0.4,0.4
	c-0.2,0-0.4-0.1-0.4-0.3c-0.1-0.2-0.1-0.4-0.1-0.5c0-0.2,0.1-0.6,0.2-1c0.1-0.4,0.2-1,0.2-1.6c0-0.1,0-0.3,0-0.5s-0.1-0.3-0.2-0.5
	c-0.7,0-1.3-0.1-2-0.1c-0.6,0-1.2-0.2-1.8-0.5c0.2-0.3,0.3-0.7,0.5-1.1c0.2-0.4,0.3-0.8,0.5-1.2c0.1-0.2,0.2-0.5,0.4-0.8
	c0.2-0.3,0.3-0.6,0.4-1c0.1-0.1,0.1-0.3,0.2-0.6c0.1-0.3,0.1-0.4,0.1-0.5c0-0.1-0.1-0.1-0.2-0.2c-0.1-0.1-0.2-0.2-0.3-0.3
	c-0.1-0.1-0.1-0.2-0.1-0.3c0-0.1-0.1-0.2-0.1-0.3c0-0.1-0.1-0.1-0.2-0.1H285v1.6c0,0,0,0.2,0,0.3c0,0.2-0.1,0.4-0.1,0.6
	c0,0.2-0.1,0.4-0.1,0.6c0,0.2,0,0.3,0,0.3V18l0.1,0.6v1.9l-0.1,0.5v2.8c0,0.1-0.1,0.2-0.2,0.4c-0.1,0.1-0.3,0.3-0.4,0.5
	c-0.1,0.1-0.1,0.3-0.1,0.5c0,0.2,0,0.3,0,0.4l0.2,2.6c0,0.3,0,0.5-0.1,0.7c-0.1,0.2-0.2,0.3-0.6,0.3c-0.2,0-0.3,0-0.4-0.1
	c-0.1-0.1-0.1-0.2-0.2-0.3s0-0.2,0-0.3c0-0.1,0-0.2,0-0.3l0.2-2.6c0-0.1,0-0.2,0-0.3c0-0.1,0-0.2-0.1-0.2c-0.1-0.1-0.1-0.1-0.2-0.1
	c-0.1,0-0.1-0.1-0.2-0.2c-0.1-0.1-0.1-0.2-0.2-0.3s-0.1-0.2-0.2-0.3c0,0-0.1,0-0.1-0.1c0,0,0,0-0.1,0c-0.1,0-0.2,0-0.4,0.1
	c-0.2,0.1-0.3,0.2-0.3,0.4c0,0.1-0.1,0.2-0.1,0.3s0,0.2,0,0.3c0,0.1-0.1,0.2-0.1,0.2c-0.1,0.1-0.2,0.1-0.3,0.1c-0.1,0-0.2,0-0.3,0
	c-0.1,0-0.1-0.1-0.2-0.2c0-0.2-0.1-0.4-0.1-0.7c0-0.3,0-0.6-0.1-0.8c0-0.1,0-0.2-0.1-0.2c0-0.1-0.1-0.2-0.1-0.2v-9.8l0.1-0.5l0-2.3
	c0-0.1,0-0.2,0-0.3c0-0.1,0-0.2,0-0.3V8c0-0.1,0-0.1-0.1-0.2c0-0.1-0.1-0.2-0.2-0.3h-1l-2-0.1c-0.3,0-0.6,0-0.7,0.1
	c-0.2,0-0.5,0.1-0.8,0.2L274,8.1c-0.1,0-0.2-0.1-0.4-0.3c-0.2-0.2-0.3-0.4-0.5-0.6c-0.2-0.2-0.3-0.5-0.4-0.7
	c-0.1-0.2-0.2-0.4-0.2-0.5c0,0,0-0.1,0-0.2c0-0.1,0-0.3,0-0.5c0-0.2,0-0.3,0.1-0.5s0.1-0.3,0.1-0.4c0-0.1,0.1-0.1,0.2-0.2
	c0.1,0,0.2,0,0.3-0.1l4,0c0,0,0.2,0,0.5,0c0.3,0,0.6,0,1.1,0.1c0.4,0,0.9,0,1.4,0.1c0.5,0,1,0.1,1.4,0.1c0.4,0,0.8,0,1.1,0.1
	c0.3,0,0.4,0,0.5,0h1.3c0.2,0,0.4-0.1,0.7-0.1c0.3,0,0.4-0.1,0.5-0.1l1.6-0.1c0.1,0,0.2,0,0.4,0.1c0.2,0,0.3,0.1,0.4,0.1h0.8
	c0-0.2,0-0.3,0-0.4c0.1-0.1,0.2-0.1,0.4-0.2c0.2-0.1,0.3-0.1,0.3-0.1l2.1,0.1c0.1,0.2,0.1,0.4,0.2,0.7c0,0.2,0.1,0.5,0.1,0.7
	c0,0.2,0,0.4,0,0.6c0,0.2,0,0.3,0,0.4c0,1.3,0.2,2.6,0.4,3.9C292.5,11.2,293,12.5,293.7,13.7z"/>
<path d="M308.5,18.9c0,0,0,0.1-0.1,0.2s-0.1,0.2-0.1,0.3c-0.1,0.3-0.2,0.7-0.4,1c-0.2,0.4-0.4,0.7-0.6,1.1c-0.1,0.1-0.2,0.3-0.3,0.5
	c-0.2,0.2-0.3,0.4-0.5,0.7c-0.2,0.2-0.3,0.5-0.4,0.7c-0.1,0.2-0.2,0.5-0.2,0.6c0,0-0.1,0.1-0.1,0.1s-0.1,0.1-0.1,0.2
	c0,0.1-0.1,0.2-0.1,0.3s-0.1,0.2-0.1,0.3v0.4c0,0,0,0.1-0.1,0.3c-0.1,0.2-0.2,0.3-0.3,0.3h-0.3c0,0-0.1-0.1-0.1-0.1
	c-0.1,0-0.1-0.1-0.1-0.2v-0.7c0-0.1,0-0.1-0.1-0.2c-0.1-0.1-0.1-0.1-0.2-0.1c-0.1,0-0.2,0.1-0.2,0.2c-0.1,0.1-0.1,0.3-0.2,0.5
	c-0.1,0.2-0.1,0.3-0.1,0.5c0,0.2-0.1,0.3-0.1,0.4l0.1,1.6c0,0.1,0,0.3-0.1,0.6c-0.1,0.2-0.2,0.3-0.5,0.3c-0.1,0-0.2,0-0.3-0.1
	c-0.1-0.2-0.2-0.3-0.3-0.4s-0.1-0.2-0.1-0.3c0-0.1,0-0.2,0.1-0.2c0-0.1,0.1-0.1,0.1-0.2v-1.2c0-0.1,0-0.3-0.1-0.5
	c-0.1-0.2-0.2-0.2-0.3-0.2c-0.1,0-0.1,0-0.2,0c-0.1,0-0.1,0-0.2,0c-0.1,0-0.2,0-0.3-0.1c-0.1-0.1-0.1-0.1-0.2-0.2s-0.1-0.2-0.1-0.3
	c0-0.1-0.1-0.2-0.2-0.3c-0.1,0.1-0.3,0.1-0.4,0.2c-0.1,0.1-0.3,0.1-0.5,0.1c-0.1,0.1-0.1,0.2-0.1,0.4s-0.1,0.3-0.2,0.4h-0.4
	c-0.1,0-0.1-0.2-0.2-0.3c-0.1-0.2-0.1-0.3-0.1-0.3v-0.4c0-0.1-0.1-0.2-0.2-0.2c-0.1,0-0.2,0-0.3-0.1l-1-0.1
	c-0.1,0.1-0.1,0.3-0.2,0.4c0,0.1,0,0.2-0.1,0.4l0.2,3.6c0,0,0,0.1,0,0.2c0,0.1-0.1,0.1-0.1,0.2h-0.9c0-0.1-0.1-0.1-0.1-0.2
	c0-0.1-0.1-0.2-0.1-0.2l0.2-3.2c0-0.1-0.1-0.2-0.1-0.4c-0.1-0.2-0.2-0.3-0.4-0.4v-0.3l-0.3-0.7v-0.3c0,0-0.2-0.1-0.5-0.4
	c-0.3-0.2-0.6-0.5-0.9-0.8c-0.3-0.3-0.6-0.6-0.9-0.8c-0.3-0.3-0.4-0.4-0.4-0.5s0.1-0.2,0.3-0.5c0.2-0.3,0.5-0.6,0.7-0.9
	c0.3-0.3,0.5-0.6,0.8-0.9c0.3-0.3,0.4-0.5,0.5-0.6c0.3,0,0.6,0.2,0.9,0.4c0.3,0.2,0.6,0.4,0.8,0.6c0.4,0.3,0.9,0.5,1.5,0.7
	c0.6,0.2,1.1,0.4,1.7,0.4l1.8,0.1c0.1,0,0.2,0,0.3,0s0.2,0,0.3-0.1c0.2-0.2,0.4-0.5,0.6-0.8c0.1-0.4,0.2-0.7,0.2-1
	c0-0.2,0-0.4-0.1-0.6c-0.1-0.2-0.3-0.4-0.6-0.6c-0.1-0.1-0.2-0.1-0.5-0.2c-0.3-0.1-0.5-0.2-0.6-0.2c-0.3-0.1-0.5-0.2-0.8-0.4
	c-0.3-0.1-0.6-0.3-0.8-0.4c-0.3-0.1-0.6-0.2-1.1-0.3c-0.4-0.1-0.8-0.3-1.2-0.5c0,0-0.1,0-0.2,0c-0.1,0-0.2,0-0.2,0
	c-0.3-0.1-0.6-0.3-0.9-0.5c-0.4-0.2-0.8-0.5-1.1-0.8c-0.1-0.1-0.3-0.4-0.5-0.6c-0.2-0.3-0.4-0.5-0.5-0.8c-0.2-0.3-0.4-0.6-0.6-1
	c-0.2-0.3-0.3-0.7-0.4-1l0.2-1.9c0.1-0.5,0.3-1,0.6-1.5c0.3-0.5,0.6-1,1.1-1.5c0.1-0.1,0.2-0.2,0.3-0.2c0.1-0.1,0.2-0.1,0.3-0.2
	c0.4-0.3,0.7-0.6,0.9-0.6c0.3-0.1,0.5-0.2,0.8-0.2c0.2,0,0.4-0.1,0.5-0.1c0.2-0.1,0.3-0.1,0.5-0.1c0.1,0,0.3-0.1,0.4-0.1
	c0.1,0,0.3-0.1,0.4-0.1l3.1,0.2c0.4,0.1,0.8,0.2,1.1,0.3c0.4,0.1,0.7,0.2,1.1,0.3c0.4,0.1,0.7,0.3,1.1,0.5s0.8,0.4,1.2,0.7
	c0.1,0,0.1,0.1,0.2,0.1c0.1,0.1,0.2,0.1,0.3,0.2c0.1,0.1,0.2,0.1,0.2,0.2c0.1,0.1,0.1,0.1,0.1,0.2c0,0.1,0,0.2-0.1,0.3
	c-0.1,0.1-0.2,0.3-0.2,0.4c-0.1,0.1-0.2,0.3-0.3,0.4c-0.1,0.1-0.2,0.2-0.2,0.3c-0.2,0.3-0.4,0.6-0.6,0.9c-0.2,0.3-0.4,0.6-0.6,0.9
	h-0.3c-0.7-0.4-1.2-0.7-1.6-0.9c-0.4-0.2-0.9-0.4-1.3-0.6c-0.4-0.2-0.8-0.3-1-0.3h-1.8c-0.3,0-0.7,0.2-0.9,0.5
	c-0.3,0.3-0.4,0.7-0.4,1.1c0,0.3,0,0.5,0.1,0.7c0.1,0.2,0.2,0.4,0.4,0.5c0.2,0.1,0.3,0.3,0.5,0.3c0.2,0.1,0.3,0.2,0.4,0.2
	c0.1,0,0.3,0.1,0.4,0.2c0.1,0.1,0.3,0.1,0.4,0.2c0.7,0.2,1.4,0.4,2.2,0.6c0.8,0.2,1.5,0.5,2.2,0.8c0.7,0.3,1.3,0.7,1.9,1.1
	c0.5,0.4,1,1,1.2,1.6c0.1,0.2,0.1,0.4,0.2,0.7c0.1,0.3,0.1,0.4,0.1,0.5V18.9z"/>
</svg>
